<svg xmlns="http://www.w3.org/2000/svg" width="14" height="11.273" viewBox="0 0 14 11.273">
  <path id="health-check" d="M17.739,14.856a3.5,3.5,0,0,0-2.5-1.036h-.01a4.287,4.287,0,0,0-2.661.965,3.785,3.785,0,0,0-2.4-1.106,3.818,3.818,0,0,0-2.781,1.178,4,4,0,0,0-1.072,2.057.545.545,0,0,0,1.07.214,2.918,2.918,0,0,1,.778-1.5l.008-.008a2.738,2.738,0,0,1,2-.846,3.263,3.263,0,0,1,2,1.122.57.57,0,0,0,.808-.007,3.232,3.232,0,0,1,2.264-.975,2.39,2.39,0,0,1,1.727.709,2.984,2.984,0,0,1,.831,2.068,3.016,3.016,0,0,1-.135.89H15.4a1.464,1.464,0,0,0-.9.312l-1.206.95a.363.363,0,0,1-.558-.139L12,18.024a1.455,1.455,0,0,0-2.416-.381l-.728.816a.366.366,0,0,1-.272.122H5.427a.545.545,0,1,0,0,1.091H8.585a1.456,1.456,0,0,0,1.085-.486l.728-.816a.363.363,0,0,1,.6.1l.739,1.678a1.446,1.446,0,0,0,.979.825,1.483,1.483,0,0,0,.355.044,1.443,1.443,0,0,0,.9-.313l1.205-.949a.365.365,0,0,1,.225-.078h1.639c-.025.027-.05.055-.076.081l-4.144,4.006a.362.362,0,0,1-.505,0L9.094,20.644a.546.546,0,0,0-.758.785l3.223,3.113a1.449,1.449,0,0,0,2.022,0l4.15-4.012.011-.011a4.081,4.081,0,0,0,0-5.656l-.006-.006Z" transform="translate(-4.882 -13.68)" fill="#7b7b7b"/>
</svg>
