<svg xmlns="http://www.w3.org/2000/svg" width="12" height="12.536" viewBox="0 0 12 12.536">
  <g id="profile" transform="translate(-9.813 -6.694)">
    <path id="Path_5937" data-name="Path 5937" d="M17.771,13.1a3.5,3.5,0,1,0-3.916,0,6.006,6.006,0,0,0-4.042,5.666.467.467,0,1,0,.933,0,5.069,5.069,0,0,1,10.133,0,.467.467,0,1,0,.933,0A6.006,6.006,0,0,0,17.771,13.1Zm-4.523-2.9A2.571,2.571,0,1,1,14,12.007a2.567,2.567,0,0,1-.753-1.814Z" fill="#7b7b7b"/>
    <path id="Path_5938" data-name="Path 5938" d="M42.718,69.716H42.2v-.5a.467.467,0,0,0-.933,0v.518h-.518a.467.467,0,1,0,0,.933h.518v.518a.467.467,0,0,0,.933,0V70.65h.518a.467.467,0,0,0,0-.933Z" transform="translate(-25.918 -52.788)" fill="#7b7b7b"/>
  </g>
</svg>
