<svg xmlns="http://www.w3.org/2000/svg" width="10.837" height="13.634" viewBox="0 0 10.837 13.634">
  <g id="cunsult" transform="translate(-16.149 -6.965)">
    <path id="Path_5939" data-name="Path 5939" d="M22.814,8.151a1.308,1.308,0,0,0-2.507,0H18.692V8.92H16.4V20.349H26.736V8.92H24.46V8.151Zm-3.83.308h1.568l.031-.123h0a1,1,0,0,1,1.968,0l.031.123h1.569V9.92H19Zm7.43.769V20.042H16.707V9.228h1.985v1H24.46v-1Z" transform="translate(0 0)" stroke="#7b7b7b" stroke-width="0.5"/>
    <path id="Path_5940" data-name="Path 5940" d="M38.51,44h-.346v2.266H35.9v.346h2.266v2.283h.346V46.612h2.266v-.346H38.51Z" transform="translate(-16.769 -31.144)" stroke="#7b7b7b" stroke-width="0.5"/>
  </g>
</svg>
