<svg xmlns="http://www.w3.org/2000/svg" xmlns:xlink="http://www.w3.org/1999/xlink" width="268" height="268" viewBox="0 0 268 268">
  <defs>
    <clipPath id="clip-path">
      <rect id="Rectangle_1262" data-name="Rectangle 1262" width="174" height="221.303" fill="none"/>
    </clipPath>
    <clipPath id="clip-path-3">
      <rect id="Rectangle_1151" data-name="Rectangle 1151" width="143.95" height="141.163" fill="none"/>
    </clipPath>
    <clipPath id="clip-path-4">
      <rect id="Rectangle_1152" data-name="Rectangle 1152" width="38.608" height="39.654" fill="none"/>
    </clipPath>
    <clipPath id="clip-path-5">
      <rect id="Rectangle_1153" data-name="Rectangle 1153" width="38.608" height="39.671" fill="none"/>
    </clipPath>
    <clipPath id="clip-path-6">
      <rect id="Rectangle_1154" data-name="Rectangle 1154" width="38.608" height="9.66" fill="none"/>
    </clipPath>
    <clipPath id="clip-path-7">
      <rect id="Rectangle_1155" data-name="Rectangle 1155" width="38.608" height="11.493" fill="none"/>
    </clipPath>
    <clipPath id="clip-path-8">
      <rect id="Rectangle_1156" data-name="Rectangle 1156" width="38.623" height="39.654" fill="none"/>
    </clipPath>
    <clipPath id="clip-path-9">
      <rect id="Rectangle_1157" data-name="Rectangle 1157" width="38.623" height="39.671" fill="none"/>
    </clipPath>
    <clipPath id="clip-path-10">
      <rect id="Rectangle_1158" data-name="Rectangle 1158" width="38.623" height="9.66" fill="none"/>
    </clipPath>
    <clipPath id="clip-path-11">
      <rect id="Rectangle_1159" data-name="Rectangle 1159" width="38.623" height="11.493" fill="none"/>
    </clipPath>
    <clipPath id="clip-path-12">
      <rect id="Rectangle_1160" data-name="Rectangle 1160" width="19.117" height="17.193" fill="none"/>
    </clipPath>
    <clipPath id="clip-path-13">
      <rect id="Rectangle_1161" data-name="Rectangle 1161" width="15.602" height="14.029" fill="none"/>
    </clipPath>
    <clipPath id="clip-path-14">
      <rect id="Rectangle_1162" data-name="Rectangle 1162" width="19.251" height="17.325" fill="none"/>
    </clipPath>
    <clipPath id="clip-path-15">
      <rect id="Rectangle_1163" data-name="Rectangle 1163" width="15.617" height="14.035" fill="none"/>
    </clipPath>
    <clipPath id="clip-path-16">
      <rect id="Rectangle_1165" data-name="Rectangle 1165" width="34.931" height="108.868" fill="none"/>
    </clipPath>
    <clipPath id="clip-path-17">
      <rect id="Rectangle_1166" data-name="Rectangle 1166" width="34.195" height="113.417" fill="none"/>
    </clipPath>
    <clipPath id="clip-path-18">
      <rect id="Rectangle_1167" data-name="Rectangle 1167" width="71.07" height="16.269" fill="none"/>
    </clipPath>
    <clipPath id="clip-path-19">
      <rect id="Rectangle_1169" data-name="Rectangle 1169" width="82.048" height="4.176" fill="none"/>
    </clipPath>
    <clipPath id="clip-path-20">
      <rect id="Rectangle_1171" data-name="Rectangle 1171" width="50.68" height="10.654" fill="none"/>
    </clipPath>
    <clipPath id="clip-path-21">
      <rect id="Rectangle_1174" data-name="Rectangle 1174" width="146.444" height="12.443" fill="none"/>
    </clipPath>
    <clipPath id="clip-path-22">
      <rect id="Rectangle_1175" data-name="Rectangle 1175" width="125.867" height="12.407" fill="none"/>
    </clipPath>
    <clipPath id="clip-path-23">
      <rect id="Rectangle_1176" data-name="Rectangle 1176" width="100.793" height="17.805" fill="none"/>
    </clipPath>
    <clipPath id="clip-path-24">
      <rect id="Rectangle_1177" data-name="Rectangle 1177" width="82.123" height="2.978" fill="none"/>
    </clipPath>
    <clipPath id="clip-path-25">
      <rect id="Rectangle_1202" data-name="Rectangle 1202" width="140.191" height="27.404" fill="none"/>
    </clipPath>
  </defs>
  <g id="delhi" transform="translate(-72 -1299)">
    <rect id="Rectangle_1145" data-name="Rectangle 1145" width="268" height="268" transform="translate(72 1299)" fill="#f1f6f7" opacity="0"/>
    <g id="Group_1148" data-name="Group 1148" transform="translate(119 1322)">
      <g id="Group_1147" data-name="Group 1147" clip-path="url(#clip-path)">
        <g id="Group_1146" data-name="Group 1146">
          <g id="Group_1145" data-name="Group 1145" clip-path="url(#clip-path)">
            <path id="Path_1255" data-name="Path 1255" d="M43.806,71.842v34.811l8.242,3.907c.124-13.226,9.934-23.024,21.436-23.024s20.869,11.668,21.2,22.976l8.437-3.859V71.842Z" transform="translate(13.439 22.04)" fill="#a65924"/>
            <path id="Path_1256" data-name="Path 1256" d="M14.6,61.186,4.12,52.018H166.377l-10.949,9.24Z" transform="translate(1.264 15.958)" fill="#ca6b29"/>
            <path id="Path_1257" data-name="Path 1257" d="M43.806,63.6V98.424l8.242,3.907c.124-13.208,9.934-23.023,21.436-23.023s20.869,11.667,21.2,22.974l8.437-3.859V63.6Z" transform="translate(13.439 19.511)" fill="#f37740"/>
            <path id="Path_1258" data-name="Path 1258" d="M50.767,99.52c-.016-.3-.03-.6-.03-.911,0-10.607,10.113-19.824,20.809-19.824S92.2,88,92.2,98.609a9.089,9.089,0,0,1-.03.911h.7a19.529,19.529,0,0,0,.2-2.858,21.52,21.52,0,0,0-43.039,0,20.088,20.088,0,0,0,.195,2.858Z" transform="translate(15.349 23.114)" fill="#ffc957"/>
            <path id="Path_1259" data-name="Path 1259" d="M52.13,97.253A21.8,21.8,0,0,1,71.175,85.028,21.584,21.584,0,0,1,90.1,97.253h.866A21.458,21.458,0,0,0,71.175,82.835,21.7,21.7,0,0,0,51.249,97.253Z" transform="translate(15.722 25.412)" fill="#ffc957"/>
            <path id="Path_1260" data-name="Path 1260" d="M54.255,93h-11.2v95.5l9.052-.078,2.151-1.984v-90.7L56.888,93Z" transform="translate(13.207 28.529)" fill="#9c4a00"/>
            <path id="Path_1261" data-name="Path 1261" d="M81.786,93H93v95.5l-9.068-.078-2.151-1.984v-90.7L79.167,93Z" transform="translate(24.287 28.529)" fill="#9c4a00"/>
            <path id="Path_1262" data-name="Path 1262" d="M41.632,62.317V100.5h9.349a23.219,23.219,0,0,1,46.4,0h9.244V62.317Z" transform="translate(12.772 19.117)" fill="#e17024"/>
            <rect id="Rectangle_1146" data-name="Rectangle 1146" width="64.981" height="8.222" transform="translate(54.719 83.37)" fill="#e1630d"/>
            <rect id="Rectangle_1147" data-name="Rectangle 1147" width="64.996" height="8.227" transform="translate(54.404 82.094)" fill="#ffad57"/>
            <rect id="Rectangle_1148" data-name="Rectangle 1148" width="64.996" height="1.857" transform="translate(54.404 82.094)" fill="#f39642"/>
            <rect id="Rectangle_1149" data-name="Rectangle 1149" width="11.206" height="97.578" transform="translate(108.719 119.145)" fill="#ffad57"/>
            <rect id="Rectangle_1150" data-name="Rectangle 1150" width="11.221" height="97.578" transform="translate(53.88 119.145)" fill="#ffad57"/>
            <g id="Group_1006" data-name="Group 1006" transform="translate(14.823 75.682)" style="mix-blend-mode: multiply;isolation: isolate">
              <g id="Group_1005" data-name="Group 1005">
                <g id="Group_1004" data-name="Group 1004" clip-path="url(#clip-path-3)">
                  <path id="Path_1263" data-name="Path 1263" d="M150.025,186.11v-11l2.665-1.887h-2.665v-9l2.259-1.439h-2.259V125.751l3.189-2.576h-3.189V109.5l3.083-2.978-4.158-.791V57.915H16.4V105.8l-2.828.73,2.828,2.721v13.244l-2.918.683,2.918,2.367V162.4l-1.929.419,1.929,1.228v9.181H14.007l2.393,1.707V185.81l-5.057,1.7h.044V194.8l46.794,3.92V187.512h.056l-5.264-1.7V175.083l2.6-1.857h-2.6v-9.049l2.2-1.39h-2.2V125.692l3.14-2.517-3.14-.683V109.445l3.02-2.918-3.02-.791L53,69.486l3.245-1.822h54.242l3.26,1.96v36.111l-3.064.791,3.064,2.961v13.687h-3.17l3.17,2.559v37.052h-2.244l2.244,1.42v9.019H111.1l2.649,1.887v10.7l-5.309,1.7h.06v11.566l46.79-4.28v-7.287Z" transform="translate(-11.343 -57.915)" fill="#f5875e"/>
                </g>
              </g>
            </g>
            <path id="Path_1264" data-name="Path 1264" d="M69.562,81.034H65.033L63.907,69.187h6.774Z" transform="translate(19.605 21.225)" fill="#ffb770"/>
            <path id="Path_1265" data-name="Path 1265" d="M69.216,80.331H65.192l-.987-11.1h6Z" transform="translate(19.697 21.239)" fill="#ffd87d"/>
            <path id="Path_1266" data-name="Path 1266" d="M167.077,52.919l3.054-3.158H2.082l2.9,3.158Z" transform="translate(0.639 15.266)" fill="#ffb04a"/>
            <path id="Path_1267" data-name="Path 1267" d="M155.11,190.722v-11.65l2.825-2.007H155.11v-9.558l2.391-1.522H155.11V126.7l3.379-2.727H155.11V109.467l3.275-3.17-4.413-.839V54.719H13.345v50.8l-2.994.779,2.994,2.9v14.048l-3.1.73,3.1,2.487v39.114l-2.035.438,2.035,1.312v9.738H10.817l2.529,1.815v11.53l-5.355,1.81h.06v7.719H57.682v-7.719h.06l-5.579-1.81V179.023l2.749-1.959H52.163v-9.6l2.333-1.479H52.163V126.642l3.319-2.667-3.319-.73V109.389l3.215-3.092-3.215-.839.014-38.443,3.439-1.948h57.548l3.469,2.08v38.311l-3.26.839,3.26,3.14v14.538H113.27l3.365,2.709v39.3h-2.38l2.38,1.509v9.571h-2.8l2.8,1.989v11.356l-5.624,1.81h.044v7.719h49.631v-7.719Z" transform="translate(2.451 16.786)" fill="#ffb75e"/>
            <g id="Group_1009" data-name="Group 1009" transform="translate(15.766 82.051)" style="mix-blend-mode: multiply;isolation: isolate">
              <g id="Group_1008" data-name="Group 1008">
                <g id="Group_1007" data-name="Group 1007" clip-path="url(#clip-path-4)">
                  <path id="Path_1268" data-name="Path 1268" d="M12.065,62.789s6.67,37.964,38.607,39.654H12.109Z" transform="translate(-12.065 -62.789)" fill="#ffc78a"/>
                </g>
              </g>
            </g>
            <g id="Group_1012" data-name="Group 1012" transform="translate(15.766 142.77)" style="mix-blend-mode: multiply;isolation: isolate">
              <g id="Group_1011" data-name="Group 1011">
                <g id="Group_1010" data-name="Group 1010" clip-path="url(#clip-path-5)">
                  <path id="Path_1269" data-name="Path 1269" d="M12.065,109.253s6.67,37.963,38.607,39.671H12.109Z" transform="translate(-12.065 -109.253)" fill="#ffc78a"/>
                </g>
              </g>
            </g>
            <g id="Group_1015" data-name="Group 1015" transform="translate(15.766 183.729)" style="mix-blend-mode: multiply;isolation: isolate">
              <g id="Group_1014" data-name="Group 1014">
                <g id="Group_1013" data-name="Group 1013" clip-path="url(#clip-path-6)">
                  <path id="Path_1270" data-name="Path 1270" d="M12.065,140.6s2.436,8.851,38.607,9.66H12.109Z" transform="translate(-12.065 -140.597)" fill="#ffc78a"/>
                </g>
              </g>
            </g>
            <g id="Group_1018" data-name="Group 1018" transform="translate(15.766 195.511)" style="mix-blend-mode: multiply;isolation: isolate">
              <g id="Group_1017" data-name="Group 1017">
                <g id="Group_1016" data-name="Group 1016" clip-path="url(#clip-path-7)">
                  <path id="Path_1271" data-name="Path 1271" d="M12.065,149.613s2.436,10.679,38.607,11.493H12.109Z" transform="translate(-12.065 -149.613)" fill="#ffc78a"/>
                </g>
              </g>
            </g>
            <g id="Group_1021" data-name="Group 1021" transform="translate(119.16 82.051)" style="mix-blend-mode: multiply;isolation: isolate">
              <g id="Group_1020" data-name="Group 1020">
                <g id="Group_1019" data-name="Group 1019" clip-path="url(#clip-path-8)">
                  <path id="Path_1272" data-name="Path 1272" d="M91.186,62.789s6.7,37.964,38.623,39.654H91.246Z" transform="translate(-91.187 -62.789)" fill="#ffc78a"/>
                </g>
              </g>
            </g>
            <g id="Group_1024" data-name="Group 1024" transform="translate(119.16 142.77)" style="mix-blend-mode: multiply;isolation: isolate">
              <g id="Group_1023" data-name="Group 1023">
                <g id="Group_1022" data-name="Group 1022" clip-path="url(#clip-path-9)">
                  <path id="Path_1273" data-name="Path 1273" d="M91.186,109.253s6.7,37.963,38.623,39.671H91.246Z" transform="translate(-91.187 -109.253)" fill="#ffc78a"/>
                </g>
              </g>
            </g>
            <g id="Group_1027" data-name="Group 1027" transform="translate(119.16 183.729)" style="mix-blend-mode: multiply;isolation: isolate">
              <g id="Group_1026" data-name="Group 1026">
                <g id="Group_1025" data-name="Group 1025" clip-path="url(#clip-path-10)">
                  <path id="Path_1274" data-name="Path 1274" d="M91.186,140.6s2.454,8.851,38.623,9.66H91.246Z" transform="translate(-91.187 -140.597)" fill="#ffc78a"/>
                </g>
              </g>
            </g>
            <g id="Group_1030" data-name="Group 1030" transform="translate(119.16 195.511)" style="mix-blend-mode: multiply;isolation: isolate">
              <g id="Group_1029" data-name="Group 1029">
                <g id="Group_1028" data-name="Group 1028" clip-path="url(#clip-path-11)">
                  <path id="Path_1275" data-name="Path 1275" d="M91.186,149.613s2.454,10.679,38.623,11.493H91.246Z" transform="translate(-91.187 -149.613)" fill="#ffc78a"/>
                </g>
              </g>
            </g>
            <path id="Path_1276" data-name="Path 1276" d="M54.2,148.525l-2.691-.719-38.772.012-2.589.707Z" transform="translate(3.115 45.344)" fill="#ffad57"/>
            <path id="Path_1277" data-name="Path 1277" d="M57.728,160.353l-5.564-1.8-38.818.012L8.036,160.3Z" transform="translate(2.465 48.641)" fill="#ffd38a"/>
            <path id="Path_1278" data-name="Path 1278" d="M54.26,148.333l-2.723,1.93-38.848-.1-2.513-1.8Z" transform="translate(3.122 45.505)" fill="#e1630d"/>
            <path id="Path_1279" data-name="Path 1279" d="M53.766,139.976,51.4,139.5l-38.832.06-2.05.431Z" transform="translate(3.227 42.794)" fill="#ffad57"/>
            <path id="Path_1280" data-name="Path 1280" d="M53.732,139.863l-2.364,1.492-38.788-.12-2.049-1.36Z" transform="translate(3.231 42.907)" fill="#e1630d"/>
            <path id="Path_1281" data-name="Path 1281" d="M54.946,107.912l-3.365-.683-38.413-.149-3.428.851Z" transform="translate(2.988 32.85)" fill="#ffad57"/>
            <path id="Path_1282" data-name="Path 1282" d="M133.909,107.912l-3.368-.683-38.428-.149-3.409.851Z" transform="translate(27.212 32.85)" fill="#ffad57"/>
            <path id="Path_1283" data-name="Path 1283" d="M54.934,107.717l-3.289,2.667-38.818-.18-3.1-2.487Z" transform="translate(2.984 33.045)" fill="#e1630d"/>
            <path id="Path_1284" data-name="Path 1284" d="M55.026,94.445l-3.425-.9-38.8.048-2.978.791Z" transform="translate(3.013 28.698)" fill="#ffad57"/>
            <path id="Path_1285" data-name="Path 1285" d="M133.932,94.445l-3.428-.9-38.8.048-2.976.791Z" transform="translate(27.219 28.698)" fill="#ffad57"/>
            <path id="Path_1286" data-name="Path 1286" d="M55,94.248l-3.379,3.02-38.832-.209L9.821,94.188Z" transform="translate(3.013 28.895)" fill="#e1630d"/>
            <path id="Path_1287" data-name="Path 1287" d="M133.126,148.525l-2.725-.719-38.756.012-2.586.707Z" transform="translate(27.321 45.344)" fill="#ffad57"/>
            <path id="Path_1288" data-name="Path 1288" d="M136.615,160.353l-5.567-1.8-38.8.012-5.3,1.738Z" transform="translate(26.675 48.641)" fill="#ffd38a"/>
            <path id="Path_1289" data-name="Path 1289" d="M133.164,148.333l-2.739,1.93-38.832-.1-2.51-1.8Z" transform="translate(27.328 45.505)" fill="#e1630d"/>
            <path id="Path_1290" data-name="Path 1290" d="M132.657,139.976l-2.35-.48-38.819.06-2.065.431Z" transform="translate(27.433 42.794)" fill="#ffad57"/>
            <path id="Path_1291" data-name="Path 1291" d="M132.621,139.863l-2.346,1.492-38.79-.12-2.05-1.36Z" transform="translate(27.436 42.907)" fill="#e1630d"/>
            <path id="Path_1292" data-name="Path 1292" d="M133.84,107.717l-3.309,2.667-38.8-.18-3.094-2.487Z" transform="translate(27.191 33.045)" fill="#e1630d"/>
            <path id="Path_1293" data-name="Path 1293" d="M133.92,94.248l-3.383,3.02-38.844-.209-2.978-2.871Z" transform="translate(27.216 28.895)" fill="#e1630d"/>
            <g id="Group_1033" data-name="Group 1033" transform="translate(128.557 87.254)" style="mix-blend-mode: multiply;isolation: isolate">
              <g id="Group_1032" data-name="Group 1032">
                <g id="Group_1031" data-name="Group 1031" clip-path="url(#clip-path-12)">
                  <path id="Path_1294" data-name="Path 1294" d="M117.494,75.375c0,4.741-4.278,8.588-9.562,8.588s-9.555-3.847-9.555-8.588c0-4.758,4.276-8.605,9.555-8.605s9.562,3.847,9.562,8.605" transform="translate(-98.377 -66.77)" fill="#ffc76b"/>
                </g>
              </g>
            </g>
            <path id="Path_1295" data-name="Path 1295" d="M116.905,74.8c0,4.74-4.278,8.587-9.558,8.587S97.8,79.541,97.8,74.8c0-4.758,4.276-8.6,9.543-8.6s9.558,3.842,9.558,8.6" transform="translate(30.004 20.309)" fill="#ffc76b"/>
            <g id="Group_1036" data-name="Group 1036" transform="translate(129.962 88.89)" style="mix-blend-mode: multiply;isolation: isolate">
              <g id="Group_1035" data-name="Group 1035">
                <g id="Group_1034" data-name="Group 1034" clip-path="url(#clip-path-13)">
                  <path id="Path_1296" data-name="Path 1296" d="M115.055,75.051c0,3.859-3.488,7-7.794,7s-7.808-3.14-7.808-7c0-3.889,3.5-7.029,7.808-7.029s7.794,3.14,7.794,7.029" transform="translate(-99.452 -68.022)" fill="#ffd38a"/>
                </g>
              </g>
            </g>
            <path id="Path_1297" data-name="Path 1297" d="M114.745,74.432c0,3.859-3.5,7-7.808,7s-7.794-3.14-7.794-7c0-3.889,3.484-7.029,7.794-7.029s7.808,3.14,7.808,7.029" transform="translate(30.415 20.678)" fill="#ffd38a"/>
            <g id="Group_1039" data-name="Group 1039" transform="translate(25.999 87.421)" style="mix-blend-mode: multiply;isolation: isolate">
              <g id="Group_1038" data-name="Group 1038">
                <g id="Group_1037" data-name="Group 1037" clip-path="url(#clip-path-14)">
                  <path id="Path_1298" data-name="Path 1298" d="M39.146,75.558c0,4.788-4.308,8.665-9.634,8.665S19.9,80.346,19.9,75.558c0-4.771,4.306-8.66,9.618-8.66s9.634,3.889,9.634,8.66" transform="translate(-19.896 -66.898)" fill="#ffc78a"/>
                </g>
              </g>
            </g>
            <path id="Path_1299" data-name="Path 1299" d="M38.4,74.819c0,4.788-4.324,8.659-9.634,8.659s-9.632-3.871-9.632-8.659,4.308-8.677,9.632-8.677S38.4,70.031,38.4,74.819" transform="translate(5.871 20.291)" fill="#ffc76b"/>
            <g id="Group_1042" data-name="Group 1042" transform="translate(27.524 88.781)" style="mix-blend-mode: multiply;isolation: isolate">
              <g id="Group_1041" data-name="Group 1041">
                <g id="Group_1040" data-name="Group 1040" clip-path="url(#clip-path-15)">
                  <path id="Path_1300" data-name="Path 1300" d="M36.679,74.957c0,3.871-3.5,7.017-7.811,7.017s-7.807-3.147-7.807-7.017,3.5-7.017,7.807-7.017,7.811,3.14,7.811,7.017" transform="translate(-21.063 -67.939)" fill="#ffd38a"/>
                </g>
              </g>
            </g>
            <path id="Path_1301" data-name="Path 1301" d="M36.137,74.432c0,3.859-3.485,7-7.794,7s-7.808-3.14-7.808-7c0-3.889,3.5-7.029,7.808-7.029s7.794,3.14,7.794,7.029" transform="translate(6.3 20.678)" fill="#ffd38a"/>
            <rect id="Rectangle_1164" data-name="Rectangle 1164" width="140.701" height="10.649" transform="translate(15.766 71.402)" fill="#ffa34f"/>
            <path id="Path_1302" data-name="Path 1302" d="M27.893,59.355l-5.2,4.35h2.3l3.245-4.081Z" transform="translate(6.96 18.209)" fill="#ffc957"/>
            <path id="Path_1303" data-name="Path 1303" d="M29.043,59.355l5.2,4.35H31.943L28.7,59.624Z" transform="translate(8.804 18.209)" fill="#ffc957"/>
            <path id="Path_1304" data-name="Path 1304" d="M27.595,59.821l-.809,3.859h2.93l-.9-3.949Z" transform="translate(8.217 18.324)" fill="#ffc957"/>
            <path id="Path_1305" data-name="Path 1305" d="M27.893,58.955l-5.2-4.35h2.3l3.245,4.086Z" transform="translate(6.96 16.751)" fill="#ffc957"/>
            <path id="Path_1306" data-name="Path 1306" d="M29.043,58.955l5.2-4.35H31.943L28.7,58.691Z" transform="translate(8.804 16.751)" fill="#ffc957"/>
            <path id="Path_1307" data-name="Path 1307" d="M27.595,58.39l-.809-3.841h2.93l-.9,3.931Z" transform="translate(8.217 16.734)" fill="#ffc957"/>
            <path id="Path_1308" data-name="Path 1308" d="M27.864,58.438l-5.474-.881v3.5l5.549-1.731Z" transform="translate(6.869 17.657)" fill="#ffc957"/>
            <path id="Path_1309" data-name="Path 1309" d="M28.731,58.438l5.474-.881v3.5l-5.567-1.731Z" transform="translate(8.786 17.657)" fill="#ffc957"/>
            <path id="Path_1310" data-name="Path 1310" d="M30.02,59.027a1.766,1.766,0,1,1-1.768-1.768,1.766,1.766,0,0,1,1.768,1.768" transform="translate(8.126 17.566)" fill="#ffc957"/>
            <path id="Path_1311" data-name="Path 1311" d="M43.118,59.355l-5.2,4.35h2.3l3.249-4.081Z" transform="translate(11.631 18.209)" fill="#ffc957"/>
            <path id="Path_1312" data-name="Path 1312" d="M44.265,59.355l5.208,4.35h-2.3l-3.247-4.081Z" transform="translate(13.474 18.209)" fill="#ffc957"/>
            <path id="Path_1313" data-name="Path 1313" d="M42.817,59.821l-.806,3.859h2.931l-.9-3.949Z" transform="translate(12.888 18.324)" fill="#ffc957"/>
            <path id="Path_1314" data-name="Path 1314" d="M43.118,58.955l-5.2-4.35h2.3l3.249,4.086Z" transform="translate(11.631 16.751)" fill="#ffc957"/>
            <path id="Path_1315" data-name="Path 1315" d="M44.265,58.955l5.208-4.35h-2.3l-3.247,4.086Z" transform="translate(13.474 16.751)" fill="#ffc957"/>
            <path id="Path_1316" data-name="Path 1316" d="M42.817,58.39l-.806-3.841h2.931l-.9,3.931Z" transform="translate(12.888 16.734)" fill="#ffc957"/>
            <path id="Path_1317" data-name="Path 1317" d="M43.089,58.438l-5.474-.881v3.5l5.564-1.731Z" transform="translate(11.539 17.657)" fill="#ffc957"/>
            <path id="Path_1318" data-name="Path 1318" d="M43.956,58.438l5.471-.881v3.5l-5.564-1.731Z" transform="translate(13.456 17.657)" fill="#ffc957"/>
            <path id="Path_1319" data-name="Path 1319" d="M45.257,59.027a1.772,1.772,0,1,1-1.78-1.768,1.776,1.776,0,0,1,1.78,1.768" transform="translate(12.797 17.566)" fill="#ffc957"/>
            <path id="Path_1320" data-name="Path 1320" d="M58.435,59.355,53.228,63.7h2.3l3.247-4.081Z" transform="translate(16.329 18.209)" fill="#ffc957"/>
            <path id="Path_1321" data-name="Path 1321" d="M59.581,59.355l5.2,4.35h-2.3l-3.246-4.081Z" transform="translate(18.173 18.209)" fill="#ffc957"/>
            <path id="Path_1322" data-name="Path 1322" d="M58.133,59.821l-.806,3.859h2.931l-.9-3.949Z" transform="translate(17.587 18.324)" fill="#ffc957"/>
            <path id="Path_1323" data-name="Path 1323" d="M58.435,58.955,53.228,54.6h2.3l3.247,4.086Z" transform="translate(16.329 16.751)" fill="#ffc957"/>
            <path id="Path_1324" data-name="Path 1324" d="M59.581,58.955l5.2-4.35h-2.3l-3.246,4.086Z" transform="translate(18.173 16.751)" fill="#ffc957"/>
            <path id="Path_1325" data-name="Path 1325" d="M58.133,58.39l-.806-3.841h2.931l-.9,3.931Z" transform="translate(17.587 16.734)" fill="#ffc957"/>
            <path id="Path_1326" data-name="Path 1326" d="M58.406,58.438l-5.474-.881v3.5l5.549-1.731Z" transform="translate(16.238 17.657)" fill="#ffc957"/>
            <path id="Path_1327" data-name="Path 1327" d="M59.27,58.438l5.474-.881v3.5L59.18,59.325Z" transform="translate(18.155 17.657)" fill="#ffc957"/>
            <path id="Path_1328" data-name="Path 1328" d="M60.559,59.027a1.765,1.765,0,1,1-1.765-1.768,1.764,1.764,0,0,1,1.765,1.768" transform="translate(17.495 17.566)" fill="#ffc957"/>
            <path id="Path_1329" data-name="Path 1329" d="M73.944,59.355l-5.2,4.35h2.32l3.23-4.081Z" transform="translate(21.087 18.209)" fill="#ffc957"/>
            <path id="Path_1330" data-name="Path 1330" d="M75.108,59.355l5.2,4.35h-2.32l-3.245-4.081Z" transform="translate(22.931 18.209)" fill="#ffc957"/>
            <path id="Path_1331" data-name="Path 1331" d="M73.657,59.821l-.809,3.859h2.934l-.9-3.949Z" transform="translate(22.348 18.324)" fill="#ffc957"/>
            <path id="Path_1332" data-name="Path 1332" d="M73.944,58.955l-5.2-4.35h2.32l3.23,4.086Z" transform="translate(21.087 16.751)" fill="#ffc957"/>
            <path id="Path_1333" data-name="Path 1333" d="M75.108,58.955l5.2-4.35h-2.32l-3.245,4.086Z" transform="translate(22.931 16.751)" fill="#ffc957"/>
            <path id="Path_1334" data-name="Path 1334" d="M73.657,58.39l-.809-3.841h2.934l-.9,3.931Z" transform="translate(22.348 16.734)" fill="#ffc957"/>
            <path id="Path_1335" data-name="Path 1335" d="M73.93,58.438l-5.478-.881v3.5l5.536-1.731Z" transform="translate(20.999 17.657)" fill="#ffc957"/>
            <path id="Path_1336" data-name="Path 1336" d="M74.778,58.438l5.474-.881v3.5L74.7,59.325Z" transform="translate(22.917 17.657)" fill="#ffc957"/>
            <path id="Path_1337" data-name="Path 1337" d="M76.082,59.027a1.771,1.771,0,1,1-1.762-1.768,1.772,1.772,0,0,1,1.762,1.768" transform="translate(22.254 17.566)" fill="#ffc957"/>
            <path id="Path_1338" data-name="Path 1338" d="M89.432,59.355l-5.2,4.35h2.32l3.245-4.081Z" transform="translate(25.839 18.209)" fill="#ffc957"/>
            <path id="Path_1339" data-name="Path 1339" d="M90.591,59.355,95.8,63.7h-2.32l-3.233-4.081Z" transform="translate(27.686 18.209)" fill="#ffc957"/>
            <path id="Path_1340" data-name="Path 1340" d="M89.145,59.821l-.809,3.859h2.915l-.865-3.949Z" transform="translate(27.1 18.324)" fill="#ffc957"/>
            <path id="Path_1341" data-name="Path 1341" d="M89.432,58.955l-5.2-4.35h2.32l3.245,4.086Z" transform="translate(25.839 16.751)" fill="#ffc957"/>
            <path id="Path_1342" data-name="Path 1342" d="M90.591,58.955,95.8,54.6h-2.32l-3.233,4.086Z" transform="translate(27.686 16.751)" fill="#ffc957"/>
            <path id="Path_1343" data-name="Path 1343" d="M89.145,58.39l-.809-3.841h2.915l-.865,3.931Z" transform="translate(27.1 16.734)" fill="#ffc957"/>
            <path id="Path_1344" data-name="Path 1344" d="M89.4,58.438l-5.474-.881v3.5l5.564-1.731Z" transform="translate(25.748 17.657)" fill="#ffc957"/>
            <path id="Path_1345" data-name="Path 1345" d="M90.263,58.438l5.477-.881v3.5l-5.549-1.731Z" transform="translate(27.669 17.657)" fill="#ffc957"/>
            <path id="Path_1346" data-name="Path 1346" d="M91.587,59.027a1.78,1.78,0,1,1-1.78-1.768,1.786,1.786,0,0,1,1.78,1.768" transform="translate(27.005 17.566)" fill="#ffc957"/>
            <path id="Path_1347" data-name="Path 1347" d="M104.932,59.355l-5.2,4.35h2.3l3.249-4.081Z" transform="translate(30.594 18.209)" fill="#ffc957"/>
            <path id="Path_1348" data-name="Path 1348" d="M106.079,59.355l5.2,4.35h-2.3l-3.247-4.081Z" transform="translate(32.437 18.209)" fill="#ffc957"/>
            <path id="Path_1349" data-name="Path 1349" d="M104.631,59.821l-.806,3.859h2.931l-.9-3.949Z" transform="translate(31.851 18.324)" fill="#ffc957"/>
            <path id="Path_1350" data-name="Path 1350" d="M104.932,58.955l-5.2-4.35h2.3l3.249,4.086Z" transform="translate(30.594 16.751)" fill="#ffc957"/>
            <path id="Path_1351" data-name="Path 1351" d="M106.079,58.955l5.2-4.35h-2.3l-3.247,4.086Z" transform="translate(32.437 16.751)" fill="#ffc957"/>
            <path id="Path_1352" data-name="Path 1352" d="M104.631,58.39l-.806-3.841h2.931l-.9,3.931Z" transform="translate(31.851 16.734)" fill="#ffc957"/>
            <path id="Path_1353" data-name="Path 1353" d="M104.9,58.438l-5.474-.881v3.5l5.549-1.731Z" transform="translate(30.503 17.657)" fill="#ffc957"/>
            <path id="Path_1354" data-name="Path 1354" d="M105.768,58.438l5.478-.881v3.5l-5.568-1.731Z" transform="translate(32.419 17.657)" fill="#ffc957"/>
            <path id="Path_1355" data-name="Path 1355" d="M107.057,59.027a1.765,1.765,0,1,1-1.765-1.768,1.765,1.765,0,0,1,1.765,1.768" transform="translate(31.76 17.566)" fill="#ffc957"/>
            <g id="Group_1045" data-name="Group 1045" transform="translate(18.292 108.588)" style="mix-blend-mode: multiply;isolation: isolate">
              <g id="Group_1044" data-name="Group 1044">
                <g id="Group_1043" data-name="Group 1043" clip-path="url(#clip-path-16)">
                  <path id="Path_1356" data-name="Path 1356" d="M44.98,184.144v-9.888l1.975-1.708H44.98v-9.588l1.675-1.283H44.98V119.638l2.364-2.32H44.98V102.661l2.3-2.678-2.3-.714V86.913l1.63-1.589L44.98,83.1H17.933l-1.478,2.228,1.478,1.589V99.149l-2.3.834,2.3,2.678v14.658H15.541l2.391,2.32v42.038H16.242l1.691,1.283v9.187l-1.988.4,1.988,1.708v9.888L14,185.4v6.568H48.9l.03-6.568Z" transform="translate(-13.998 -83.096)" fill="#ffb78a"/>
                </g>
              </g>
            </g>
            <path id="Path_1357" data-name="Path 1357" d="M43.574,182.97v-9.75l1.824-1.678H43.574v-9.486l1.558-1.271H43.574V119.273L45.758,117H43.574V102.536L45.7,99.887l-2.125-.714V86.967l1.5-1.558-1.5-2.2H18.684l-1.379,2.2,1.379,1.558V99.048l-2.125.839,2.125,2.649V117h-2.2l2.2,2.271v41.511H17.129l1.555,1.271v9.066l-1.84.419,1.84,1.678v9.75l-3.62,1.258v6.459h32.13l.03-6.459Z" transform="translate(4.621 25.527)" fill="#ffb75e"/>
            <path id="Path_1358" data-name="Path 1358" d="M17.837,86.608s-1.256,10.547,24.89,11.523h-24.9Z" transform="translate(5.468 26.569)" fill="#ff772e"/>
            <path id="Path_1359" data-name="Path 1359" d="M17.837,98.036s-1.256,12.711,24.89,13.7h-24.9Z" transform="translate(5.468 30.075)" fill="#ff772e"/>
            <path id="Path_1360" data-name="Path 1360" d="M17.837,143.362s-1.256,8.324,24.89,9.307h-24.9Z" transform="translate(5.468 43.98)" fill="#ff772e"/>
            <path id="Path_1361" data-name="Path 1361" d="M17.837,110.67s-1.256,40.57,24.89,41.559l-24.9-.15Z" transform="translate(5.468 33.951)" fill="#ff772e"/>
            <path id="Path_1362" data-name="Path 1362" d="M47.254,160.806,43.6,159.6H18.624l-3.56,1.2Z" transform="translate(4.621 48.961)" fill="#ffe08f"/>
            <path id="Path_1363" data-name="Path 1363" d="M44.513,85.41l-.056-.15L43.048,83.21H18.158l-1.379,2.2Z" transform="translate(5.148 25.527)" fill="#ffad57"/>
            <path id="Path_1364" data-name="Path 1364" d="M44.513,84.916l-.056.15-1.409,2.061H18.158l-1.379-2.211Z" transform="translate(5.148 26.05)" fill="#e1630d"/>
            <path id="Path_1365" data-name="Path 1365" d="M45.377,96.169l-2.154-.713L18.318,95.33l-2.109.839Z" transform="translate(4.972 29.245)" fill="#ffad57"/>
            <path id="Path_1366" data-name="Path 1366" d="M45.363,95.972l-2.169,2.667H18.318l-2.109-2.667Z" transform="translate(4.972 29.442)" fill="#e1630d"/>
            <path id="Path_1367" data-name="Path 1367" d="M45.437,109.259l-2.2-.689-24.906-.12-2.169.827Z" transform="translate(4.958 33.27)" fill="#ffad57"/>
            <path id="Path_1368" data-name="Path 1368" d="M45.437,109.069l-2.229,2.3-24.876-.03-2.169-2.253Z" transform="translate(4.958 33.46)" fill="#e1630d"/>
            <path id="Path_1369" data-name="Path 1369" d="M44.622,142.661l-1.528-.372-24.891.03-1.572.342Z" transform="translate(5.102 43.651)" fill="#ffad57"/>
            <path id="Path_1370" data-name="Path 1370" d="M44.618,142.592l-1.528,1.252H18.169l-1.525-1.27Z" transform="translate(5.106 43.738)" fill="#e1630d"/>
            <path id="Path_1371" data-name="Path 1371" d="M44.963,150.895l-1.81-.408-24.89-.012-1.824.419Z" transform="translate(5.043 46.162)" fill="#ffad57"/>
            <path id="Path_1372" data-name="Path 1372" d="M44.948,150.8l-1.78,1.69-24.936-.035-1.794-1.643Z" transform="translate(5.043 46.261)" fill="#e1630d"/>
            <g id="Group_1048" data-name="Group 1048" transform="translate(121.854 107.886)" style="mix-blend-mode: multiply;isolation: isolate">
              <g id="Group_1047" data-name="Group 1047">
                <g id="Group_1046" data-name="Group 1046" clip-path="url(#clip-path-17)">
                  <path id="Path_1373" data-name="Path 1373" d="M123.553,187.838v-10.29l1.944-1.8h-1.944v-9.989l1.644-1.349h-1.644v-44.28l3.319-3.277-3.319-1.073V102.958l2.259-2.793-2.259-.767V86.538l1.618-1.648-1.618-2.331H97.078L95.642,84.89l1.436,1.648V99.279l-2.245.886,2.245,2.793v12.806l-2.874,1.39,2.874,3.469v43.789H95.43l1.648,1.349v9.57l-1.93.419,1.93,1.8v10.29l-3.83,1.319v6.819h34.168l.026-6.819Z" transform="translate(-93.248 -82.559)" fill="#ffb78a"/>
                </g>
              </g>
            </g>
            <path id="Path_1374" data-name="Path 1374" d="M122.538,182.97v-9.75l1.826-1.678h-1.826v-9.486l1.555-1.271h-1.555V119.273L124.723,117h-2.185V102.536l2.121-2.649-2.121-.714V86.967l1.495-1.558-1.495-2.2H97.629l-1.36,2.2,1.36,1.558V99.048l-2.109.839,2.109,2.649V117H95.448l2.181,2.271v41.511H96.089l1.541,1.271v9.066l-1.824.419,1.824,1.678v9.75l-3.6,1.258v6.459h32.132l.03-6.459Z" transform="translate(28.845 25.527)" fill="#ffb75e"/>
            <path id="Path_1375" data-name="Path 1375" d="M96.785,143.362s-1.24,8.324,24.909,9.307H96.785Z" transform="translate(29.689 43.98)" fill="#ff772e"/>
            <path id="Path_1376" data-name="Path 1376" d="M96.866,110.67s-1.24,40.57,24.908,41.559l-24.908-.15Z" transform="translate(29.714 33.951)" fill="#ff772e"/>
            <path id="Path_1377" data-name="Path 1377" d="M96.785,98.036s-1.24,12.711,24.909,13.7H96.785Z" transform="translate(29.689 30.075)" fill="#ff772e"/>
            <path id="Path_1378" data-name="Path 1378" d="M96.614,86.608s-1.257,10.547,24.892,11.523H96.614Z" transform="translate(29.636 26.569)" fill="#ff772e"/>
            <path id="Path_1379" data-name="Path 1379" d="M126.218,160.806l-3.65-1.21H97.585l-3.56,1.2Z" transform="translate(28.845 48.961)" fill="#ffe08f"/>
            <path id="Path_1380" data-name="Path 1380" d="M123.477,85.41l-.06-.15-1.4-2.049H97.1l-1.362,2.2Z" transform="translate(29.371 25.527)" fill="#ffad57"/>
            <path id="Path_1381" data-name="Path 1381" d="M123.477,84.916l-.06.15-1.4,2.061H97.1l-1.362-2.211Z" transform="translate(29.371 26.05)" fill="#e1630d"/>
            <path id="Path_1382" data-name="Path 1382" d="M124.342,96.169l-2.155-.713L97.278,95.33l-2.109.839Z" transform="translate(29.196 29.245)" fill="#ffad57"/>
            <path id="Path_1383" data-name="Path 1383" d="M124.326,95.972l-2.169,2.667H97.279l-2.109-2.667Z" transform="translate(29.196 29.442)" fill="#e1630d"/>
            <path id="Path_1384" data-name="Path 1384" d="M124.4,109.259l-2.2-.689-24.908-.12-2.167.827Z" transform="translate(29.182 33.27)" fill="#ffad57"/>
            <path id="Path_1385" data-name="Path 1385" d="M124.389,109.069l-2.215,2.3-24.878-.03-2.181-2.253Z" transform="translate(29.179 33.46)" fill="#e1630d"/>
            <path id="Path_1386" data-name="Path 1386" d="M123.585,142.661l-1.525-.372-24.893.03-1.585.342Z" transform="translate(29.323 43.651)" fill="#ffad57"/>
            <path id="Path_1387" data-name="Path 1387" d="M123.579,142.592l-1.525,1.252H97.131l-1.526-1.27Z" transform="translate(29.329 43.738)" fill="#e1630d"/>
            <path id="Path_1388" data-name="Path 1388" d="M123.926,150.895l-1.81-.408-24.893-.012-1.822.419Z" transform="translate(29.267 46.162)" fill="#ffad57"/>
            <path id="Path_1389" data-name="Path 1389" d="M123.908,150.8l-1.777,1.69-24.937-.035L95.4,150.808Z" transform="translate(29.267 46.261)" fill="#e1630d"/>
            <path id="Path_1390" data-name="Path 1390" d="M68.837,0c-.869,0-1.75.03-2.619.06C65.349.108,64.48.169,63.6.24c-1.735.149-3.469.341-5.2.538l.074-.1.046,2.794-.135-.132c1.734-.192,3.469-.348,5.2-.451,1.751-.1,3.5-.149,5.253-.167,1.75,0,3.5.037,5.249.139,1.735.072,3.485.239,5.221.419l-.15.131L79.2.677l.09.1C77.556.582,75.822.389,74.072.24,73.2.18,72.322.108,71.453.06,70.587.03,69.718,0,68.837,0" transform="translate(17.91)" fill="#f89638"/>
            <path id="Path_1391" data-name="Path 1391" d="M48.837,22.568A49.621,49.621,0,0,1,75.481,15.15a49.574,49.574,0,0,1,26.64,7.419h12.132C108.719,10.452,93.443,1.72,75.481,1.72s-33.239,8.732-38.76,20.848Z" transform="translate(11.265 0.528)" fill="#ffb75e"/>
            <g id="Group_1051" data-name="Group 1051" transform="translate(50.709 2.248)" style="mix-blend-mode: multiply;isolation: isolate">
              <g id="Group_1050" data-name="Group 1050">
                <g id="Group_1049" data-name="Group 1049" clip-path="url(#clip-path-18)">
                  <path id="Path_1392" data-name="Path 1392" d="M108.575,15.06c-.869-.312-2.067-.672-3.654-1.079-24.35-6.088-54.433-2.3-46.639-7.389C66.06,1.5,85.162,2.883,85.162,2.883c.374.03.733.03,1.034.047A52.957,52.957,0,0,0,74.842,1.72c-15.56,0-29.094,6.55-36.037,16.167,6.3.282,17.532-.059,20.016-.587.195-.024.642-.054,1.286-.084A53.289,53.289,0,0,1,74.842,15.15a52.346,52.346,0,0,1,16.2,2.517c9.127.042,17.055-.18,18.835-1.079-.419-.521-.855-1.031-1.3-1.528" transform="translate(-38.805 -1.72)" fill="#ffd3a8"/>
                </g>
              </g>
            </g>
            <path id="Path_1393" data-name="Path 1393" d="M110.879,13.342c-9.393-3.829-21-4.459-34.867-4.459S50.387,9.992,41.14,13.342H34.994v6.927h82.049V13.342Z" transform="translate(10.735 2.725)" fill="#ffd3a8"/>
            <g id="Group_1054" data-name="Group 1054" transform="translate(45.729 18.818)" style="mix-blend-mode: multiply;isolation: isolate">
              <g id="Group_1053" data-name="Group 1053">
                <g id="Group_1052" data-name="Group 1052" clip-path="url(#clip-path-19)">
                  <rect id="Rectangle_1168" data-name="Rectangle 1168" width="82.049" height="4.176" transform="translate(0)" fill="#cf3f00"/>
                </g>
              </g>
            </g>
            <rect id="Rectangle_1170" data-name="Rectangle 1170" width="101.228" height="18.236" transform="translate(36.138 19.434)" fill="#ffb75e"/>
            <g id="Group_1057" data-name="Group 1057" transform="translate(61.898 23.786)" style="mix-blend-mode: multiply;isolation: isolate">
              <g id="Group_1056" data-name="Group 1056">
                <g id="Group_1055" data-name="Group 1055" clip-path="url(#clip-path-20)">
                  <path id="Path_1394" data-name="Path 1394" d="M98.047,19.43H87.173V18.2H58.243V19.43H47.367v8.079H58.243v1.349H87.173V27.508H98.047Z" transform="translate(-47.367 -18.202)" fill="#ffc957"/>
                </g>
              </g>
            </g>
            <rect id="Rectangle_1172" data-name="Rectangle 1172" width="125.971" height="12.788" transform="translate(23.766 37.61)" fill="#ffb75e"/>
            <rect id="Rectangle_1173" data-name="Rectangle 1173" width="146.445" height="14.904" transform="translate(13.521 50.231)" fill="#ffb75e"/>
            <g id="Group_1060" data-name="Group 1060" transform="translate(13.492 50.231)" style="mix-blend-mode: multiply;isolation: isolate">
              <g id="Group_1059" data-name="Group 1059">
                <g id="Group_1058" data-name="Group 1058" clip-path="url(#clip-path-21)">
                  <path id="Path_1395" data-name="Path 1395" d="M10.355,38.439S58.911,51.545,156.77,50.856H10.325Z" transform="translate(-10.325 -38.439)" fill="#ffd3a8"/>
                </g>
              </g>
            </g>
            <g id="Group_1063" data-name="Group 1063" transform="translate(23.901 37.761)" style="mix-blend-mode: multiply;isolation: isolate">
              <g id="Group_1062" data-name="Group 1062">
                <g id="Group_1061" data-name="Group 1061" clip-path="url(#clip-path-22)">
                  <path id="Path_1396" data-name="Path 1396" d="M18.32,28.9s27.974,13.076,125.836,12.38H18.29Z" transform="translate(-18.291 -28.896)" fill="#ffd3a8"/>
                </g>
              </g>
            </g>
            <g id="Group_1066" data-name="Group 1066" transform="translate(36.408 19.237)" style="mix-blend-mode: multiply;isolation: isolate">
              <g id="Group_1065" data-name="Group 1065">
                <g id="Group_1064" data-name="Group 1064" clip-path="url(#clip-path-23)">
                  <path id="Path_1397" data-name="Path 1397" d="M27.891,14.721s2.9,18.044,100.763,17.337l-100.793.468Z" transform="translate(-27.861 -14.721)" fill="#ffd3a8"/>
                </g>
              </g>
            </g>
            <g id="Group_1069" data-name="Group 1069" transform="translate(45.655 16.247)" style="mix-blend-mode: multiply;isolation: isolate">
              <g id="Group_1068" data-name="Group 1068">
                <g id="Group_1067" data-name="Group 1067" clip-path="url(#clip-path-24)">
                  <path id="Path_1398" data-name="Path 1398" d="M34.965,12.433s10.156,2.32,82.1,2.517l-82.124.461Z" transform="translate(-34.937 -12.433)" fill="#ffeac2"/>
                </g>
              </g>
            </g>
            <path id="Path_1399" data-name="Path 1399" d="M0,47.929l2.663,2.846H2.645l42.051-.12L86.747,50.6l84.1-.048-.165.06,3.14-3.021.18.4-87,.03-43.5-.03Z" transform="translate(0 14.599)" fill="#ffe099"/>
            <rect id="Rectangle_1178" data-name="Rectangle 1178" width="125.971" height="1.571" transform="translate(23.766 49.379)" fill="#ffe099"/>
            <rect id="Rectangle_1179" data-name="Rectangle 1179" width="101.228" height="0.941" transform="translate(36.138 36.771)" fill="#ffe099"/>
            <path id="Path_1400" data-name="Path 1400" d="M101.453,23.289c0,3.229-2.9,5.866-6.505,5.866s-6.508-2.637-6.508-5.866,2.918-5.867,6.508-5.867,6.505,2.637,6.505,5.867" transform="translate(27.131 5.345)" fill="#bd4700"/>
            <path id="Path_1401" data-name="Path 1401" d="M101.453,22.714c0,3.236-2.9,5.849-6.505,5.849s-6.508-2.614-6.508-5.849,2.918-5.861,6.508-5.861,6.505,2.631,6.505,5.861" transform="translate(27.131 5.17)" fill="#ffb75e"/>
            <path id="Path_1402" data-name="Path 1402" d="M47.629,23.289c0,3.229-2.9,5.866-6.491,5.866-3.6,0-6.522-2.637-6.522-5.866s2.918-5.867,6.522-5.867c3.587,0,6.491,2.637,6.491,5.867" transform="translate(10.619 5.345)" fill="#bd4700"/>
            <path id="Path_1403" data-name="Path 1403" d="M47.629,22.714c0,3.236-2.9,5.849-6.491,5.849-3.6,0-6.522-2.614-6.522-5.849s2.918-5.861,6.522-5.861c3.587,0,6.491,2.631,6.491,5.861" transform="translate(10.619 5.17)" fill="#ffb75e"/>
            <path id="Path_1404" data-name="Path 1404" d="M98.047,18.381H87.173V17.129H58.243v1.252H47.367v8.079H58.243v1.347H87.173V26.459H98.047Z" transform="translate(14.531 5.255)" fill="#ffb75e"/>
            <path id="Path_1405" data-name="Path 1405" d="M62.056,19.508c.014,0,.03,0,.03.03a.065.065,0,0,1-.06.06l-.329.06c-.044,0-.06.03-.06.072-.03.527-.06,1.75-.06,2.1s-.03,1.942-.03,2.121c0,.078.03.09.09.108l.389.072c.03.018.06.048.06.06s0,.012-.03.012H60.767v-.012c0-.03,0-.06.03-.06l.359-.072c.06-.03.09-.03.09-.12.014-.257,0-1.857,0-2.188,0-.311-.03-1.75-.03-1.911,0-.09-.03-.18-.09-.18l-.359-.06c-.03,0-.03-.03-.03-.06v-.03Z" transform="translate(18.633 5.985)" fill="#ca4200"/>
            <path id="Path_1406" data-name="Path 1406" d="M63.087,19.508c.03,0,.06,0,.06.03.3.6,1.764,3.2,2.214,4.039.042.06.09.179.15.269h.03a2.025,2.025,0,0,1-.016-.3c0-.749-.014-3.5-.044-3.739,0-.09-.03-.139-.1-.15L65,19.6a.065.065,0,0,1-.06-.06c0-.03.016-.03.03-.03h1.2c.013,0,.027,0,.027.03a.062.062,0,0,1-.058.06l-.212.06c-.09.012-.118.03-.118.18-.03.263-.063,1.461-.09,1.959,0,.312-.044,2.139-.044,2.421,0,.018-.014.018-.033.03a.62.62,0,0,1-.146.03.1.1,0,0,1-.076-.042C65,23.487,63.566,21.151,63,20.078c-.03-.06-.074-.15-.12-.239h-.03V20.1c-.03.767-.059,3.745-.059,3.835s.014.09.059.09l.48.09c.016,0,.027.042.027.072V24.2H62.13s-.017,0-.017-.012a.077.077,0,0,1,.047-.072l.342-.078a.122.122,0,0,0,.1-.1c0-.257,0-1.905-.014-2.2s-.016-1.81-.016-1.917c0-.072-.03-.15-.1-.162L62.1,19.6c-.026,0-.044-.03-.044-.06s0-.03.018-.03Z" transform="translate(19.036 5.985)" fill="#ca4200"/>
            <path id="Path_1407" data-name="Path 1407" d="M65.536,19.665c-.03,0-.059-.048-.059-.077,0-.013,0-.013.029-.013a15.141,15.141,0,0,1,1.515-.089A1.96,1.96,0,0,1,69.259,21.6a2.479,2.479,0,0,1-2.648,2.612H65.567a.075.075,0,0,1,.029-.072l.344-.09c.061-.012.1-.03.1-.1,0-.274-.03-1.905-.03-2.186V19.815c0-.09-.029-.139-.118-.139ZM66.6,24.094a2.2,2.2,0,0,0,2.261-2.457A1.81,1.81,0,0,0,66.912,19.6c-.417,0-.481.06-.491.15-.047.57-.106,4.033-.09,4.213,0,.1.1.125.252.125Z" transform="translate(20.087 5.978)" fill="#ca4200"/>
            <path id="Path_1408" data-name="Path 1408" d="M70.02,19.508c.014,0,.03,0,.03.03a.065.065,0,0,1-.06.06l-.329.06c-.042,0-.057.03-.057.072-.033.527-.063,1.75-.063,2.1s-.026,1.942-.026,2.121c0,.078.026.09.089.108l.387.072c.03.018.06.048.06.06s0,.012-.03.012H68.734v-.012c0-.03,0-.06.03-.06l.359-.072c.06-.03.088-.03.088-.12.033-.257,0-1.857,0-2.188,0-.311-.027-1.75-.027-1.911,0-.09-.03-.18-.09-.18l-.359-.06c-.03,0-.03-.03-.03-.06v-.03Z" transform="translate(21.077 5.985)" fill="#ca4200"/>
            <path id="Path_1409" data-name="Path 1409" d="M72.024,19.495c.076,0,.18.017.239.017.03,0,.046,0,.046.03.315,1.031,1.094,3.321,1.42,4.322a.346.346,0,0,0,.179.2l.3.072a.089.089,0,0,1,.044.072h-1.33c0-.024.016-.072.046-.072l.418-.1c.06,0,.1-.03.072-.09-.146-.418-.4-1.1-.536-1.468-.345,0-1.379.03-1.914.03-.046,0-.06.042-.09.09-.09.3-.285.929-.389,1.347-.03.072.014.09.06.1l.48.09c.03.018.056.03.056.072H69.78a.114.114,0,0,1,.044-.084l.225-.06c.06-.018.1-.06.15-.156.4-.983,1.24-3.284,1.6-4.261.048-.1.078-.149.21-.149Zm-.1.257a1.148,1.148,0,0,1-.1.294c-.24.7-.6,1.708-.746,2.188-.03.06-.03.077.03.09.359,0,1.419.042,1.764.012-.149-.414-.584-1.673-.809-2.254-.03-.077-.06-.209-.1-.329Z" transform="translate(21.407 5.981)" fill="#ca4200"/>
            <rect id="Rectangle_1180" data-name="Rectangle 1180" width="6.269" height="3.098" transform="translate(22.751 71.636)" fill="#ffc957"/>
            <rect id="Rectangle_1181" data-name="Rectangle 1181" width="6.028" height="2.978" transform="translate(22.871 75.364)" fill="#ffc957"/>
            <rect id="Rectangle_1182" data-name="Rectangle 1182" width="5.4" height="2.661" transform="translate(23.185 78.954)" fill="#ffc957"/>
            <rect id="Rectangle_1183" data-name="Rectangle 1183" width="6.253" height="3.098" transform="translate(42.902 71.636)" fill="#ffc957"/>
            <rect id="Rectangle_1184" data-name="Rectangle 1184" width="6.014" height="2.978" transform="translate(43.02 75.364)" fill="#ffc957"/>
            <rect id="Rectangle_1185" data-name="Rectangle 1185" width="5.415" height="2.661" transform="translate(43.32 78.954)" fill="#ffc957"/>
            <rect id="Rectangle_1186" data-name="Rectangle 1186" width="6.265" height="3.098" transform="translate(63.036 71.636)" fill="#ffc957"/>
            <rect id="Rectangle_1187" data-name="Rectangle 1187" width="6.028" height="2.978" transform="translate(63.157 75.364)" fill="#ffc957"/>
            <rect id="Rectangle_1188" data-name="Rectangle 1188" width="5.387" height="2.661" transform="translate(63.483 78.954)" fill="#ffc957"/>
            <rect id="Rectangle_1189" data-name="Rectangle 1189" width="6.253" height="3.098" transform="translate(83.199 71.636)" fill="#ffc957"/>
            <rect id="Rectangle_1190" data-name="Rectangle 1190" width="6.014" height="2.978" transform="translate(83.319 75.364)" fill="#ffc957"/>
            <rect id="Rectangle_1191" data-name="Rectangle 1191" width="5.4" height="2.661" transform="translate(83.618 78.954)" fill="#ffc957"/>
            <rect id="Rectangle_1192" data-name="Rectangle 1192" width="6.254" height="3.098" transform="translate(103.333 71.636)" fill="#ffc957"/>
            <rect id="Rectangle_1193" data-name="Rectangle 1193" width="6.012" height="2.978" transform="translate(103.455 75.364)" fill="#ffc957"/>
            <rect id="Rectangle_1194" data-name="Rectangle 1194" width="5.402" height="2.661" transform="translate(103.769 78.954)" fill="#ffc957"/>
            <rect id="Rectangle_1195" data-name="Rectangle 1195" width="6.265" height="3.098" transform="translate(123.485 71.636)" fill="#ffc957"/>
            <rect id="Rectangle_1196" data-name="Rectangle 1196" width="6.029" height="2.978" transform="translate(123.603 75.364)" fill="#ffc957"/>
            <rect id="Rectangle_1197" data-name="Rectangle 1197" width="5.385" height="2.661" transform="translate(123.918 78.954)" fill="#ffc957"/>
            <rect id="Rectangle_1198" data-name="Rectangle 1198" width="6.25" height="3.098" transform="translate(143.634 71.636)" fill="#ffc957"/>
            <rect id="Rectangle_1199" data-name="Rectangle 1199" width="6.014" height="2.978" transform="translate(143.755 75.364)" fill="#ffc957"/>
            <rect id="Rectangle_1200" data-name="Rectangle 1200" width="5.414" height="2.661" transform="translate(144.054 78.954)" fill="#ffc957"/>
            <path id="Path_1410" data-name="Path 1410" d="M86.211,165.74h0l-2.99-1.4v2.3L86.211,170v.018h52.64V165.74Z" transform="translate(25.53 50.415)" fill="#ffba73"/>
            <path id="Path_1411" data-name="Path 1411" d="M86.211,169.984l-2.99-3.362.03-2.228,2.96,1.33Z" transform="translate(25.53 50.432)" fill="#e98e38"/>
            <path id="Path_1412" data-name="Path 1412" d="M63.094,163.742l-3.481,2.181H6.971V170.2H59.613v-.017l3.409-3.321Z" transform="translate(2.138 50.232)" fill="#ffba73"/>
            <path id="Path_1413" data-name="Path 1413" d="M47.255,170.156l3.481-3.469-.072-2.853L47.255,165.9Z" transform="translate(14.497 50.26)" fill="#e98e38"/>
            <g id="Group_1072" data-name="Group 1072" transform="translate(15.946 69.383)" style="mix-blend-mode: multiply;isolation: isolate">
              <g id="Group_1071" data-name="Group 1071">
                <g id="Group_1070" data-name="Group 1070" clip-path="url(#clip-path-25)">
                  <rect id="Rectangle_1201" data-name="Rectangle 1201" width="140.192" height="27.404" transform="translate(-0.001)" fill="#ffc78a"/>
                </g>
              </g>
            </g>
            <g id="Group_1144" data-name="Group 1144" opacity="0.4" style="mix-blend-mode: color-burn;isolation: isolate">
              <g id="Group_1143" data-name="Group 1143">
                <g id="Group_1142" data-name="Group 1142" clip-path="url(#clip-path)">
                  <path id="Path_1414" data-name="Path 1414" d="M43.806,71.842v34.811l8.242,3.907c.124-13.226,9.934-23.024,21.436-23.024s20.869,11.668,21.2,22.976l8.437-3.859V71.842Z" transform="translate(13.439 22.04)" fill="#6a6a6a"/>
                  <path id="Path_1415" data-name="Path 1415" d="M14.6,61.186,4.12,52.018H166.377l-10.949,9.24Z" transform="translate(1.264 15.958)" fill="gray"/>
                  <path id="Path_1416" data-name="Path 1416" d="M43.806,63.6V98.424l8.242,3.907c.124-13.208,9.934-23.023,21.436-23.023s20.869,11.667,21.2,22.974l8.437-3.859V63.6Z" transform="translate(13.439 19.511)" fill="#969696"/>
                  <path id="Path_1417" data-name="Path 1417" d="M50.767,99.52c-.016-.3-.03-.6-.03-.911,0-10.607,10.113-19.824,20.809-19.824S92.2,88,92.2,98.609a9.089,9.089,0,0,1-.03.911h.7a19.529,19.529,0,0,0,.2-2.858,21.52,21.52,0,0,0-43.039,0,20.088,20.088,0,0,0,.195,2.858Z" transform="translate(15.349 23.114)" fill="#cdcdcd"/>
                  <path id="Path_1418" data-name="Path 1418" d="M52.13,97.253A21.8,21.8,0,0,1,71.175,85.028,21.584,21.584,0,0,1,90.1,97.253h.866A21.458,21.458,0,0,0,71.175,82.835,21.7,21.7,0,0,0,51.249,97.253Z" transform="translate(15.722 25.412)" fill="#cdcdcd"/>
                  <path id="Path_1419" data-name="Path 1419" d="M54.255,93h-11.2v95.5l9.052-.078,2.151-1.984v-90.7L56.888,93Z" transform="translate(13.207 28.529)" fill="#5a5a5a"/>
                  <path id="Path_1420" data-name="Path 1420" d="M81.786,93H93v95.5l-9.068-.078-2.151-1.984v-90.7L79.167,93Z" transform="translate(24.287 28.529)" fill="#5a5a5a"/>
                  <path id="Path_1421" data-name="Path 1421" d="M41.632,62.317V100.5h9.349a23.219,23.219,0,0,1,46.4,0h9.244V62.317Z" transform="translate(12.772 19.117)" fill="#8a8a8a"/>
                  <rect id="Rectangle_1203" data-name="Rectangle 1203" width="64.981" height="8.222" transform="translate(54.719 83.37)" fill="#7f7f7f"/>
                  <rect id="Rectangle_1204" data-name="Rectangle 1204" width="64.996" height="8.227" transform="translate(54.404 82.094)" fill="#bcbcbc"/>
                  <rect id="Rectangle_1205" data-name="Rectangle 1205" width="64.996" height="1.857" transform="translate(54.404 82.094)" fill="#a9a9a9"/>
                  <rect id="Rectangle_1206" data-name="Rectangle 1206" width="11.206" height="97.578" transform="translate(108.719 119.145)" fill="#bcbcbc"/>
                  <rect id="Rectangle_1207" data-name="Rectangle 1207" width="11.221" height="97.578" transform="translate(53.88 119.145)" fill="#bcbcbc"/>
                  <g id="Group_1075" data-name="Group 1075" transform="translate(14.823 75.682)" style="mix-blend-mode: multiply;isolation: isolate">
                    <g id="Group_1074" data-name="Group 1074">
                      <g id="Group_1073" data-name="Group 1073" clip-path="url(#clip-path-3)">
                        <path id="Path_1422" data-name="Path 1422" d="M150.025,186.11v-11l2.665-1.887h-2.665v-9l2.259-1.439h-2.259V125.751l3.189-2.576h-3.189V109.5l3.083-2.978-4.158-.791V57.915H16.4V105.8l-2.828.73,2.828,2.721v13.244l-2.918.683,2.918,2.367V162.4l-1.929.419,1.929,1.228v9.181H14.007l2.393,1.707V185.81l-5.057,1.7h.044V194.8l46.794,3.92V187.512h.056l-5.264-1.7V175.083l2.6-1.857h-2.6v-9.049l2.2-1.39h-2.2V125.692l3.14-2.517-3.14-.683V109.445l3.02-2.918-3.02-.791L53,69.486l3.245-1.822h54.242l3.26,1.96v36.111l-3.064.791,3.064,2.961v13.687h-3.17l3.17,2.559v37.052h-2.244l2.244,1.42v9.019H111.1l2.649,1.887v10.7l-5.309,1.7h.06v11.566l46.79-4.28v-7.287Z" transform="translate(-11.343 -57.915)" fill="#a3a3a3"/>
                      </g>
                    </g>
                  </g>
                  <path id="Path_1423" data-name="Path 1423" d="M69.562,81.034H65.033L63.907,69.187h6.774Z" transform="translate(19.605 21.225)" fill="#c5c5c5"/>
                  <path id="Path_1424" data-name="Path 1424" d="M69.216,80.331H65.192l-.987-11.1h6Z" transform="translate(19.697 21.239)" fill="#dadada"/>
                  <path id="Path_1425" data-name="Path 1425" d="M167.077,52.919l3.054-3.158H2.082l2.9,3.158Z" transform="translate(0.639 15.266)" fill="#bcbcbc"/>
                  <path id="Path_1426" data-name="Path 1426" d="M155.11,190.722v-11.65l2.825-2.007H155.11v-9.558l2.391-1.522H155.11V126.7l3.379-2.727H155.11V109.467l3.275-3.17-4.413-.839V54.719H13.345v50.8l-2.994.779,2.994,2.9v14.048l-3.1.73,3.1,2.487v39.114l-2.035.438,2.035,1.312v9.738H10.817l2.529,1.815v11.53l-5.355,1.81h.06v7.719H57.682v-7.719h.06l-5.579-1.81V179.023l2.749-1.959H52.163v-9.6l2.333-1.479H52.163V126.642l3.319-2.667-3.319-.73V109.389l3.215-3.092-3.215-.839.014-38.443,3.439-1.948h57.548l3.469,2.08v38.311l-3.26.839,3.26,3.14v14.538H113.27l3.365,2.709v39.3h-2.38l2.38,1.509v9.571h-2.8l2.8,1.989v11.356l-5.624,1.81h.044v7.719h49.631v-7.719Z" transform="translate(2.451 16.786)" fill="#c3c3c3"/>
                  <g id="Group_1078" data-name="Group 1078" transform="translate(15.766 82.051)" style="mix-blend-mode: multiply;isolation: isolate">
                    <g id="Group_1077" data-name="Group 1077">
                      <g id="Group_1076" data-name="Group 1076" clip-path="url(#clip-path-4)">
                        <path id="Path_1427" data-name="Path 1427" d="M12.065,62.789s6.67,37.964,38.607,39.654H12.109Z" transform="translate(-12.065 -62.789)" fill="#d1d1d1"/>
                      </g>
                    </g>
                  </g>
                  <g id="Group_1081" data-name="Group 1081" transform="translate(15.766 142.77)" style="mix-blend-mode: multiply;isolation: isolate">
                    <g id="Group_1080" data-name="Group 1080">
                      <g id="Group_1079" data-name="Group 1079" clip-path="url(#clip-path-5)">
                        <path id="Path_1428" data-name="Path 1428" d="M12.065,109.253s6.67,37.963,38.607,39.671H12.109Z" transform="translate(-12.065 -109.253)" fill="#d1d1d1"/>
                      </g>
                    </g>
                  </g>
                  <g id="Group_1084" data-name="Group 1084" transform="translate(15.766 183.729)" style="mix-blend-mode: multiply;isolation: isolate">
                    <g id="Group_1083" data-name="Group 1083">
                      <g id="Group_1082" data-name="Group 1082" clip-path="url(#clip-path-6)">
                        <path id="Path_1429" data-name="Path 1429" d="M12.065,140.6s2.436,8.851,38.607,9.66H12.109Z" transform="translate(-12.065 -140.597)" fill="#d1d1d1"/>
                      </g>
                    </g>
                  </g>
                  <g id="Group_1087" data-name="Group 1087" transform="translate(15.766 195.511)" style="mix-blend-mode: multiply;isolation: isolate">
                    <g id="Group_1086" data-name="Group 1086">
                      <g id="Group_1085" data-name="Group 1085" clip-path="url(#clip-path-7)">
                        <path id="Path_1430" data-name="Path 1430" d="M12.065,149.613s2.436,10.679,38.607,11.493H12.109Z" transform="translate(-12.065 -149.613)" fill="#d1d1d1"/>
                      </g>
                    </g>
                  </g>
                  <g id="Group_1090" data-name="Group 1090" transform="translate(119.16 82.051)" style="mix-blend-mode: multiply;isolation: isolate">
                    <g id="Group_1089" data-name="Group 1089">
                      <g id="Group_1088" data-name="Group 1088" clip-path="url(#clip-path-8)">
                        <path id="Path_1431" data-name="Path 1431" d="M91.186,62.789s6.7,37.964,38.623,39.654H91.246Z" transform="translate(-91.187 -62.789)" fill="#d1d1d1"/>
                      </g>
                    </g>
                  </g>
                  <g id="Group_1093" data-name="Group 1093" transform="translate(119.16 142.77)" style="mix-blend-mode: multiply;isolation: isolate">
                    <g id="Group_1092" data-name="Group 1092">
                      <g id="Group_1091" data-name="Group 1091" clip-path="url(#clip-path-9)">
                        <path id="Path_1432" data-name="Path 1432" d="M91.186,109.253s6.7,37.963,38.623,39.671H91.246Z" transform="translate(-91.187 -109.253)" fill="#d1d1d1"/>
                      </g>
                    </g>
                  </g>
                  <g id="Group_1096" data-name="Group 1096" transform="translate(119.16 183.729)" style="mix-blend-mode: multiply;isolation: isolate">
                    <g id="Group_1095" data-name="Group 1095">
                      <g id="Group_1094" data-name="Group 1094" clip-path="url(#clip-path-10)">
                        <path id="Path_1433" data-name="Path 1433" d="M91.186,140.6s2.454,8.851,38.623,9.66H91.246Z" transform="translate(-91.187 -140.597)" fill="#d1d1d1"/>
                      </g>
                    </g>
                  </g>
                  <g id="Group_1099" data-name="Group 1099" transform="translate(119.16 195.511)" style="mix-blend-mode: multiply;isolation: isolate">
                    <g id="Group_1098" data-name="Group 1098">
                      <g id="Group_1097" data-name="Group 1097" clip-path="url(#clip-path-11)">
                        <path id="Path_1434" data-name="Path 1434" d="M91.186,149.613s2.454,10.679,38.623,11.493H91.246Z" transform="translate(-91.187 -149.613)" fill="#d1d1d1"/>
                      </g>
                    </g>
                  </g>
                  <path id="Path_1435" data-name="Path 1435" d="M54.2,148.525l-2.691-.719-38.772.012-2.589.707Z" transform="translate(3.115 45.344)" fill="#bcbcbc"/>
                  <path id="Path_1436" data-name="Path 1436" d="M57.728,160.353l-5.564-1.8-38.818.012L8.036,160.3Z" transform="translate(2.465 48.641)" fill="#d8d8d8"/>
                  <path id="Path_1437" data-name="Path 1437" d="M54.26,148.333l-2.723,1.93-38.848-.1-2.513-1.8Z" transform="translate(3.122 45.505)" fill="#7f7f7f"/>
                  <path id="Path_1438" data-name="Path 1438" d="M53.766,139.976,51.4,139.5l-38.832.06-2.05.431Z" transform="translate(3.227 42.794)" fill="#bcbcbc"/>
                  <path id="Path_1439" data-name="Path 1439" d="M53.732,139.863l-2.364,1.492-38.788-.12-2.049-1.36Z" transform="translate(3.231 42.907)" fill="#7f7f7f"/>
                  <path id="Path_1440" data-name="Path 1440" d="M54.946,107.912l-3.365-.683-38.413-.149-3.428.851Z" transform="translate(2.988 32.85)" fill="#bcbcbc"/>
                  <path id="Path_1441" data-name="Path 1441" d="M133.909,107.912l-3.368-.683-38.428-.149-3.409.851Z" transform="translate(27.212 32.85)" fill="#bcbcbc"/>
                  <path id="Path_1442" data-name="Path 1442" d="M54.934,107.717l-3.289,2.667-38.818-.18-3.1-2.487Z" transform="translate(2.984 33.045)" fill="#7f7f7f"/>
                  <path id="Path_1443" data-name="Path 1443" d="M55.026,94.445l-3.425-.9-38.8.048-2.978.791Z" transform="translate(3.013 28.698)" fill="#bcbcbc"/>
                  <path id="Path_1444" data-name="Path 1444" d="M133.932,94.445l-3.428-.9-38.8.048-2.976.791Z" transform="translate(27.219 28.698)" fill="#bcbcbc"/>
                  <path id="Path_1445" data-name="Path 1445" d="M55,94.248l-3.379,3.02-38.832-.209L9.821,94.188Z" transform="translate(3.013 28.895)" fill="#7f7f7f"/>
                  <path id="Path_1446" data-name="Path 1446" d="M133.126,148.525l-2.725-.719-38.756.012-2.586.707Z" transform="translate(27.321 45.344)" fill="#bcbcbc"/>
                  <path id="Path_1447" data-name="Path 1447" d="M136.615,160.353l-5.567-1.8-38.8.012-5.3,1.738Z" transform="translate(26.675 48.641)" fill="#d8d8d8"/>
                  <path id="Path_1448" data-name="Path 1448" d="M133.164,148.333l-2.739,1.93-38.832-.1-2.51-1.8Z" transform="translate(27.328 45.505)" fill="#7f7f7f"/>
                  <path id="Path_1449" data-name="Path 1449" d="M132.657,139.976l-2.35-.48-38.819.06-2.065.431Z" transform="translate(27.433 42.794)" fill="#bcbcbc"/>
                  <path id="Path_1450" data-name="Path 1450" d="M132.621,139.863l-2.346,1.492-38.79-.12-2.05-1.36Z" transform="translate(27.436 42.907)" fill="#7f7f7f"/>
                  <path id="Path_1451" data-name="Path 1451" d="M133.84,107.717l-3.309,2.667-38.8-.18-3.094-2.487Z" transform="translate(27.191 33.045)" fill="#7f7f7f"/>
                  <path id="Path_1452" data-name="Path 1452" d="M133.92,94.248l-3.383,3.02-38.844-.209-2.978-2.871Z" transform="translate(27.216 28.895)" fill="#7f7f7f"/>
                  <g id="Group_1102" data-name="Group 1102" transform="translate(128.557 87.254)" style="mix-blend-mode: multiply;isolation: isolate">
                    <g id="Group_1101" data-name="Group 1101">
                      <g id="Group_1100" data-name="Group 1100" clip-path="url(#clip-path-12)">
                        <path id="Path_1453" data-name="Path 1453" d="M117.494,75.375c0,4.741-4.278,8.588-9.562,8.588s-9.555-3.847-9.555-8.588c0-4.758,4.276-8.605,9.555-8.605s9.562,3.847,9.562,8.605" transform="translate(-98.377 -66.77)" fill="#cecece"/>
                      </g>
                    </g>
                  </g>
                  <path id="Path_1454" data-name="Path 1454" d="M116.905,74.8c0,4.74-4.278,8.587-9.558,8.587S97.8,79.541,97.8,74.8c0-4.758,4.276-8.6,9.543-8.6s9.558,3.842,9.558,8.6" transform="translate(30.004 20.309)" fill="#cecece"/>
                  <g id="Group_1105" data-name="Group 1105" transform="translate(129.962 88.89)" style="mix-blend-mode: multiply;isolation: isolate">
                    <g id="Group_1104" data-name="Group 1104">
                      <g id="Group_1103" data-name="Group 1103" clip-path="url(#clip-path-13)">
                        <path id="Path_1455" data-name="Path 1455" d="M115.055,75.051c0,3.859-3.488,7-7.794,7s-7.808-3.14-7.808-7c0-3.889,3.5-7.029,7.808-7.029s7.794,3.14,7.794,7.029" transform="translate(-99.452 -68.022)" fill="#d8d8d8"/>
                      </g>
                    </g>
                  </g>
                  <path id="Path_1456" data-name="Path 1456" d="M114.745,74.432c0,3.859-3.5,7-7.808,7s-7.794-3.14-7.794-7c0-3.889,3.484-7.029,7.794-7.029s7.808,3.14,7.808,7.029" transform="translate(30.415 20.678)" fill="#d8d8d8"/>
                  <g id="Group_1108" data-name="Group 1108" transform="translate(25.999 87.421)" style="mix-blend-mode: multiply;isolation: isolate">
                    <g id="Group_1107" data-name="Group 1107">
                      <g id="Group_1106" data-name="Group 1106" clip-path="url(#clip-path-14)">
                        <path id="Path_1457" data-name="Path 1457" d="M39.146,75.558c0,4.788-4.308,8.665-9.634,8.665S19.9,80.346,19.9,75.558c0-4.771,4.306-8.66,9.618-8.66s9.634,3.889,9.634,8.66" transform="translate(-19.896 -66.898)" fill="#d1d1d1"/>
                      </g>
                    </g>
                  </g>
                  <path id="Path_1458" data-name="Path 1458" d="M38.4,74.819c0,4.788-4.324,8.659-9.634,8.659s-9.632-3.871-9.632-8.659,4.308-8.677,9.632-8.677S38.4,70.031,38.4,74.819" transform="translate(5.871 20.291)" fill="#cecece"/>
                  <g id="Group_1111" data-name="Group 1111" transform="translate(27.524 88.781)" style="mix-blend-mode: multiply;isolation: isolate">
                    <g id="Group_1110" data-name="Group 1110">
                      <g id="Group_1109" data-name="Group 1109" clip-path="url(#clip-path-15)">
                        <path id="Path_1459" data-name="Path 1459" d="M36.679,74.957c0,3.871-3.5,7.017-7.811,7.017s-7.807-3.147-7.807-7.017,3.5-7.017,7.807-7.017,7.811,3.14,7.811,7.017" transform="translate(-21.063 -67.939)" fill="#d8d8d8"/>
                      </g>
                    </g>
                  </g>
                  <path id="Path_1460" data-name="Path 1460" d="M36.137,74.432c0,3.859-3.485,7-7.794,7s-7.808-3.14-7.808-7c0-3.889,3.5-7.029,7.808-7.029s7.794,3.14,7.794,7.029" transform="translate(6.3 20.678)" fill="#d8d8d8"/>
                  <rect id="Rectangle_1221" data-name="Rectangle 1221" width="140.701" height="10.649" transform="translate(15.766 71.402)" fill="#b5b5b5"/>
                  <path id="Path_1461" data-name="Path 1461" d="M27.893,59.355l-5.2,4.35h2.3l3.245-4.081Z" transform="translate(6.96 18.209)" fill="#cdcdcd"/>
                  <path id="Path_1462" data-name="Path 1462" d="M29.043,59.355l5.2,4.35H31.943L28.7,59.624Z" transform="translate(8.804 18.209)" fill="#cdcdcd"/>
                  <path id="Path_1463" data-name="Path 1463" d="M27.595,59.821l-.809,3.859h2.93l-.9-3.949Z" transform="translate(8.217 18.324)" fill="#cdcdcd"/>
                  <path id="Path_1464" data-name="Path 1464" d="M27.893,58.955l-5.2-4.35h2.3l3.245,4.086Z" transform="translate(6.96 16.751)" fill="#cdcdcd"/>
                  <path id="Path_1465" data-name="Path 1465" d="M29.043,58.955l5.2-4.35H31.943L28.7,58.691Z" transform="translate(8.804 16.751)" fill="#cdcdcd"/>
                  <path id="Path_1466" data-name="Path 1466" d="M27.595,58.39l-.809-3.841h2.93l-.9,3.931Z" transform="translate(8.217 16.734)" fill="#cdcdcd"/>
                  <path id="Path_1467" data-name="Path 1467" d="M27.864,58.438l-5.474-.881v3.5l5.549-1.731Z" transform="translate(6.869 17.657)" fill="#cdcdcd"/>
                  <path id="Path_1468" data-name="Path 1468" d="M28.731,58.438l5.474-.881v3.5l-5.567-1.731Z" transform="translate(8.786 17.657)" fill="#cdcdcd"/>
                  <path id="Path_1469" data-name="Path 1469" d="M30.02,59.027a1.766,1.766,0,1,1-1.768-1.768,1.766,1.766,0,0,1,1.768,1.768" transform="translate(8.126 17.566)" fill="#cdcdcd"/>
                  <path id="Path_1470" data-name="Path 1470" d="M43.118,59.355l-5.2,4.35h2.3l3.249-4.081Z" transform="translate(11.631 18.209)" fill="#cdcdcd"/>
                  <path id="Path_1471" data-name="Path 1471" d="M44.265,59.355l5.208,4.35h-2.3l-3.247-4.081Z" transform="translate(13.474 18.209)" fill="#cdcdcd"/>
                  <path id="Path_1472" data-name="Path 1472" d="M42.817,59.821l-.806,3.859h2.931l-.9-3.949Z" transform="translate(12.888 18.324)" fill="#cdcdcd"/>
                  <path id="Path_1473" data-name="Path 1473" d="M43.118,58.955l-5.2-4.35h2.3l3.249,4.086Z" transform="translate(11.631 16.751)" fill="#cdcdcd"/>
                  <path id="Path_1474" data-name="Path 1474" d="M44.265,58.955l5.208-4.35h-2.3l-3.247,4.086Z" transform="translate(13.474 16.751)" fill="#cdcdcd"/>
                  <path id="Path_1475" data-name="Path 1475" d="M42.817,58.39l-.806-3.841h2.931l-.9,3.931Z" transform="translate(12.888 16.734)" fill="#cdcdcd"/>
                  <path id="Path_1476" data-name="Path 1476" d="M43.089,58.438l-5.474-.881v3.5l5.564-1.731Z" transform="translate(11.539 17.657)" fill="#cdcdcd"/>
                  <path id="Path_1477" data-name="Path 1477" d="M43.956,58.438l5.471-.881v3.5l-5.564-1.731Z" transform="translate(13.456 17.657)" fill="#cdcdcd"/>
                  <path id="Path_1478" data-name="Path 1478" d="M45.257,59.027a1.772,1.772,0,1,1-1.78-1.768,1.776,1.776,0,0,1,1.78,1.768" transform="translate(12.797 17.566)" fill="#cdcdcd"/>
                  <path id="Path_1479" data-name="Path 1479" d="M58.435,59.355,53.228,63.7h2.3l3.247-4.081Z" transform="translate(16.329 18.209)" fill="#cdcdcd"/>
                  <path id="Path_1480" data-name="Path 1480" d="M59.581,59.355l5.2,4.35h-2.3l-3.246-4.081Z" transform="translate(18.173 18.209)" fill="#cdcdcd"/>
                  <path id="Path_1481" data-name="Path 1481" d="M58.133,59.821l-.806,3.859h2.931l-.9-3.949Z" transform="translate(17.587 18.324)" fill="#cdcdcd"/>
                  <path id="Path_1482" data-name="Path 1482" d="M58.435,58.955,53.228,54.6h2.3l3.247,4.086Z" transform="translate(16.329 16.751)" fill="#cdcdcd"/>
                  <path id="Path_1483" data-name="Path 1483" d="M59.581,58.955l5.2-4.35h-2.3l-3.246,4.086Z" transform="translate(18.173 16.751)" fill="#cdcdcd"/>
                  <path id="Path_1484" data-name="Path 1484" d="M58.133,58.39l-.806-3.841h2.931l-.9,3.931Z" transform="translate(17.587 16.734)" fill="#cdcdcd"/>
                  <path id="Path_1485" data-name="Path 1485" d="M58.406,58.438l-5.474-.881v3.5l5.549-1.731Z" transform="translate(16.238 17.657)" fill="#cdcdcd"/>
                  <path id="Path_1486" data-name="Path 1486" d="M59.27,58.438l5.474-.881v3.5L59.18,59.325Z" transform="translate(18.155 17.657)" fill="#cdcdcd"/>
                  <path id="Path_1487" data-name="Path 1487" d="M60.559,59.027a1.765,1.765,0,1,1-1.765-1.768,1.764,1.764,0,0,1,1.765,1.768" transform="translate(17.495 17.566)" fill="#cdcdcd"/>
                  <path id="Path_1488" data-name="Path 1488" d="M73.944,59.355l-5.2,4.35h2.32l3.23-4.081Z" transform="translate(21.087 18.209)" fill="#cdcdcd"/>
                  <path id="Path_1489" data-name="Path 1489" d="M75.108,59.355l5.2,4.35h-2.32l-3.245-4.081Z" transform="translate(22.931 18.209)" fill="#cdcdcd"/>
                  <path id="Path_1490" data-name="Path 1490" d="M73.657,59.821l-.809,3.859h2.934l-.9-3.949Z" transform="translate(22.348 18.324)" fill="#cdcdcd"/>
                  <path id="Path_1491" data-name="Path 1491" d="M73.944,58.955l-5.2-4.35h2.32l3.23,4.086Z" transform="translate(21.087 16.751)" fill="#cdcdcd"/>
                  <path id="Path_1492" data-name="Path 1492" d="M75.108,58.955l5.2-4.35h-2.32l-3.245,4.086Z" transform="translate(22.931 16.751)" fill="#cdcdcd"/>
                  <path id="Path_1493" data-name="Path 1493" d="M73.657,58.39l-.809-3.841h2.934l-.9,3.931Z" transform="translate(22.348 16.734)" fill="#cdcdcd"/>
                  <path id="Path_1494" data-name="Path 1494" d="M73.93,58.438l-5.478-.881v3.5l5.536-1.731Z" transform="translate(20.999 17.657)" fill="#cdcdcd"/>
                  <path id="Path_1495" data-name="Path 1495" d="M74.778,58.438l5.474-.881v3.5L74.7,59.325Z" transform="translate(22.917 17.657)" fill="#cdcdcd"/>
                  <path id="Path_1496" data-name="Path 1496" d="M76.082,59.027a1.771,1.771,0,1,1-1.762-1.768,1.772,1.772,0,0,1,1.762,1.768" transform="translate(22.254 17.566)" fill="#cdcdcd"/>
                  <path id="Path_1497" data-name="Path 1497" d="M89.432,59.355l-5.2,4.35h2.32l3.245-4.081Z" transform="translate(25.839 18.209)" fill="#cdcdcd"/>
                  <path id="Path_1498" data-name="Path 1498" d="M90.591,59.355,95.8,63.7h-2.32l-3.233-4.081Z" transform="translate(27.686 18.209)" fill="#cdcdcd"/>
                  <path id="Path_1499" data-name="Path 1499" d="M89.145,59.821l-.809,3.859h2.915l-.865-3.949Z" transform="translate(27.1 18.324)" fill="#cdcdcd"/>
                  <path id="Path_1500" data-name="Path 1500" d="M89.432,58.955l-5.2-4.35h2.32l3.245,4.086Z" transform="translate(25.839 16.751)" fill="#cdcdcd"/>
                  <path id="Path_1501" data-name="Path 1501" d="M90.591,58.955,95.8,54.6h-2.32l-3.233,4.086Z" transform="translate(27.686 16.751)" fill="#cdcdcd"/>
                  <path id="Path_1502" data-name="Path 1502" d="M89.145,58.39l-.809-3.841h2.915l-.865,3.931Z" transform="translate(27.1 16.734)" fill="#cdcdcd"/>
                  <path id="Path_1503" data-name="Path 1503" d="M89.4,58.438l-5.474-.881v3.5l5.564-1.731Z" transform="translate(25.748 17.657)" fill="#cdcdcd"/>
                  <path id="Path_1504" data-name="Path 1504" d="M90.263,58.438l5.477-.881v3.5l-5.549-1.731Z" transform="translate(27.669 17.657)" fill="#cdcdcd"/>
                  <path id="Path_1505" data-name="Path 1505" d="M91.587,59.027a1.78,1.78,0,1,1-1.78-1.768,1.786,1.786,0,0,1,1.78,1.768" transform="translate(27.005 17.566)" fill="#cdcdcd"/>
                  <path id="Path_1506" data-name="Path 1506" d="M104.932,59.355l-5.2,4.35h2.3l3.249-4.081Z" transform="translate(30.594 18.209)" fill="#cdcdcd"/>
                  <path id="Path_1507" data-name="Path 1507" d="M106.079,59.355l5.2,4.35h-2.3l-3.247-4.081Z" transform="translate(32.437 18.209)" fill="#cdcdcd"/>
                  <path id="Path_1508" data-name="Path 1508" d="M104.631,59.821l-.806,3.859h2.931l-.9-3.949Z" transform="translate(31.851 18.324)" fill="#cdcdcd"/>
                  <path id="Path_1509" data-name="Path 1509" d="M104.932,58.955l-5.2-4.35h2.3l3.249,4.086Z" transform="translate(30.594 16.751)" fill="#cdcdcd"/>
                  <path id="Path_1510" data-name="Path 1510" d="M106.079,58.955l5.2-4.35h-2.3l-3.247,4.086Z" transform="translate(32.437 16.751)" fill="#cdcdcd"/>
                  <path id="Path_1511" data-name="Path 1511" d="M104.631,58.39l-.806-3.841h2.931l-.9,3.931Z" transform="translate(31.851 16.734)" fill="#cdcdcd"/>
                  <path id="Path_1512" data-name="Path 1512" d="M104.9,58.438l-5.474-.881v3.5l5.549-1.731Z" transform="translate(30.503 17.657)" fill="#cdcdcd"/>
                  <path id="Path_1513" data-name="Path 1513" d="M105.768,58.438l5.478-.881v3.5l-5.568-1.731Z" transform="translate(32.419 17.657)" fill="#cdcdcd"/>
                  <path id="Path_1514" data-name="Path 1514" d="M107.057,59.027a1.765,1.765,0,1,1-1.765-1.768,1.765,1.765,0,0,1,1.765,1.768" transform="translate(31.76 17.566)" fill="#cdcdcd"/>
                  <g id="Group_1114" data-name="Group 1114" transform="translate(18.292 108.588)" style="mix-blend-mode: multiply;isolation: isolate">
                    <g id="Group_1113" data-name="Group 1113">
                      <g id="Group_1112" data-name="Group 1112" clip-path="url(#clip-path-16)">
                        <path id="Path_1515" data-name="Path 1515" d="M44.98,184.144v-9.888l1.975-1.708H44.98v-9.588l1.675-1.283H44.98V119.638l2.364-2.32H44.98V102.661l2.3-2.678-2.3-.714V86.913l1.63-1.589L44.98,83.1H17.933l-1.478,2.228,1.478,1.589V99.149l-2.3.834,2.3,2.678v14.658H15.541l2.391,2.32v42.038H16.242l1.691,1.283v9.187l-1.988.4,1.988,1.708v9.888L14,185.4v6.568H48.9l.03-6.568Z" transform="translate(-13.998 -83.096)" fill="#c8c8c8"/>
                      </g>
                    </g>
                  </g>
                  <path id="Path_1516" data-name="Path 1516" d="M43.574,182.97v-9.75l1.824-1.678H43.574v-9.486l1.558-1.271H43.574V119.273L45.758,117H43.574V102.536L45.7,99.887l-2.125-.714V86.967l1.5-1.558-1.5-2.2H18.684l-1.379,2.2,1.379,1.558V99.048l-2.125.839,2.125,2.649V117h-2.2l2.2,2.271v41.511H17.129l1.555,1.271v9.066l-1.84.419,1.84,1.678v9.75l-3.62,1.258v6.459h32.13l.03-6.459Z" transform="translate(4.621 25.527)" fill="#c3c3c3"/>
                  <path id="Path_1517" data-name="Path 1517" d="M17.837,86.608s-1.256,10.547,24.89,11.523h-24.9Z" transform="translate(5.468 26.569)" fill="#989898"/>
                  <path id="Path_1518" data-name="Path 1518" d="M17.837,98.036s-1.256,12.711,24.89,13.7h-24.9Z" transform="translate(5.468 30.075)" fill="#989898"/>
                  <path id="Path_1519" data-name="Path 1519" d="M17.837,143.362s-1.256,8.324,24.89,9.307h-24.9Z" transform="translate(5.468 43.98)" fill="#989898"/>
                  <path id="Path_1520" data-name="Path 1520" d="M17.837,110.67s-1.256,40.57,24.89,41.559l-24.9-.15Z" transform="translate(5.468 33.951)" fill="#989898"/>
                  <path id="Path_1521" data-name="Path 1521" d="M47.254,160.806,43.6,159.6H18.624l-3.56,1.2Z" transform="translate(4.621 48.961)" fill="#e0e0e0"/>
                  <path id="Path_1522" data-name="Path 1522" d="M44.513,85.41l-.056-.15L43.048,83.21H18.158l-1.379,2.2Z" transform="translate(5.148 25.527)" fill="#bcbcbc"/>
                  <path id="Path_1523" data-name="Path 1523" d="M44.513,84.916l-.056.15-1.409,2.061H18.158l-1.379-2.211Z" transform="translate(5.148 26.05)" fill="#7f7f7f"/>
                  <path id="Path_1524" data-name="Path 1524" d="M45.377,96.169l-2.154-.713L18.318,95.33l-2.109.839Z" transform="translate(4.972 29.245)" fill="#bcbcbc"/>
                  <path id="Path_1525" data-name="Path 1525" d="M45.363,95.972l-2.169,2.667H18.318l-2.109-2.667Z" transform="translate(4.972 29.442)" fill="#7f7f7f"/>
                  <path id="Path_1526" data-name="Path 1526" d="M45.437,109.259l-2.2-.689-24.906-.12-2.169.827Z" transform="translate(4.958 33.27)" fill="#bcbcbc"/>
                  <path id="Path_1527" data-name="Path 1527" d="M45.437,109.069l-2.229,2.3-24.876-.03-2.169-2.253Z" transform="translate(4.958 33.46)" fill="#7f7f7f"/>
                  <path id="Path_1528" data-name="Path 1528" d="M44.622,142.661l-1.528-.372-24.891.03-1.572.342Z" transform="translate(5.102 43.651)" fill="#bcbcbc"/>
                  <path id="Path_1529" data-name="Path 1529" d="M44.618,142.592l-1.528,1.252H18.169l-1.525-1.27Z" transform="translate(5.106 43.738)" fill="#7f7f7f"/>
                  <path id="Path_1530" data-name="Path 1530" d="M44.963,150.895l-1.81-.408-24.89-.012-1.824.419Z" transform="translate(5.043 46.162)" fill="#bcbcbc"/>
                  <path id="Path_1531" data-name="Path 1531" d="M44.948,150.8l-1.78,1.69-24.936-.035-1.794-1.643Z" transform="translate(5.043 46.261)" fill="#7f7f7f"/>
                  <g id="Group_1117" data-name="Group 1117" transform="translate(121.854 107.886)" style="mix-blend-mode: multiply;isolation: isolate">
                    <g id="Group_1116" data-name="Group 1116">
                      <g id="Group_1115" data-name="Group 1115" clip-path="url(#clip-path-17)">
                        <path id="Path_1532" data-name="Path 1532" d="M123.553,187.838v-10.29l1.944-1.8h-1.944v-9.989l1.644-1.349h-1.644v-44.28l3.319-3.277-3.319-1.073V102.958l2.259-2.793-2.259-.767V86.538l1.618-1.648-1.618-2.331H97.078L95.642,84.89l1.436,1.648V99.279l-2.245.886,2.245,2.793v12.806l-2.874,1.39,2.874,3.469v43.789H95.43l1.648,1.349v9.57l-1.93.419,1.93,1.8v10.29l-3.83,1.319v6.819h34.168l.026-6.819Z" transform="translate(-93.248 -82.559)" fill="#c8c8c8"/>
                      </g>
                    </g>
                  </g>
                  <path id="Path_1533" data-name="Path 1533" d="M122.538,182.97v-9.75l1.826-1.678h-1.826v-9.486l1.555-1.271h-1.555V119.273L124.723,117h-2.185V102.536l2.121-2.649-2.121-.714V86.967l1.495-1.558-1.495-2.2H97.629l-1.36,2.2,1.36,1.558V99.048l-2.109.839,2.109,2.649V117H95.448l2.181,2.271v41.511H96.089l1.541,1.271v9.066l-1.824.419,1.824,1.678v9.75l-3.6,1.258v6.459h32.132l.03-6.459Z" transform="translate(28.845 25.527)" fill="#c3c3c3"/>
                  <path id="Path_1534" data-name="Path 1534" d="M96.785,143.362s-1.24,8.324,24.909,9.307H96.785Z" transform="translate(29.689 43.98)" fill="#989898"/>
                  <path id="Path_1535" data-name="Path 1535" d="M96.866,110.67s-1.24,40.57,24.908,41.559l-24.908-.15Z" transform="translate(29.714 33.951)" fill="#989898"/>
                  <path id="Path_1536" data-name="Path 1536" d="M96.785,98.036s-1.24,12.711,24.909,13.7H96.785Z" transform="translate(29.689 30.075)" fill="#989898"/>
                  <path id="Path_1537" data-name="Path 1537" d="M96.614,86.608s-1.257,10.547,24.892,11.523H96.614Z" transform="translate(29.636 26.569)" fill="#989898"/>
                  <path id="Path_1538" data-name="Path 1538" d="M126.218,160.806l-3.65-1.21H97.585l-3.56,1.2Z" transform="translate(28.845 48.961)" fill="#e0e0e0"/>
                  <path id="Path_1539" data-name="Path 1539" d="M123.477,85.41l-.06-.15-1.4-2.049H97.1l-1.362,2.2Z" transform="translate(29.371 25.527)" fill="#bcbcbc"/>
                  <path id="Path_1540" data-name="Path 1540" d="M123.477,84.916l-.06.15-1.4,2.061H97.1l-1.362-2.211Z" transform="translate(29.371 26.05)" fill="#7f7f7f"/>
                  <path id="Path_1541" data-name="Path 1541" d="M124.342,96.169l-2.155-.713L97.278,95.33l-2.109.839Z" transform="translate(29.196 29.245)" fill="#bcbcbc"/>
                  <path id="Path_1542" data-name="Path 1542" d="M124.326,95.972l-2.169,2.667H97.279l-2.109-2.667Z" transform="translate(29.196 29.442)" fill="#7f7f7f"/>
                  <path id="Path_1543" data-name="Path 1543" d="M124.4,109.259l-2.2-.689-24.908-.12-2.167.827Z" transform="translate(29.182 33.27)" fill="#bcbcbc"/>
                  <path id="Path_1544" data-name="Path 1544" d="M124.389,109.069l-2.215,2.3-24.878-.03-2.181-2.253Z" transform="translate(29.179 33.46)" fill="#7f7f7f"/>
                  <path id="Path_1545" data-name="Path 1545" d="M123.585,142.661l-1.525-.372-24.893.03-1.585.342Z" transform="translate(29.323 43.651)" fill="#bcbcbc"/>
                  <path id="Path_1546" data-name="Path 1546" d="M123.579,142.592l-1.525,1.252H97.131l-1.526-1.27Z" transform="translate(29.329 43.738)" fill="#7f7f7f"/>
                  <path id="Path_1547" data-name="Path 1547" d="M123.926,150.895l-1.81-.408-24.893-.012-1.822.419Z" transform="translate(29.267 46.162)" fill="#bcbcbc"/>
                  <path id="Path_1548" data-name="Path 1548" d="M123.908,150.8l-1.777,1.69-24.937-.035L95.4,150.808Z" transform="translate(29.267 46.261)" fill="#7f7f7f"/>
                  <path id="Path_1549" data-name="Path 1549" d="M68.837,0c-.869,0-1.75.03-2.619.06C65.349.108,64.48.169,63.6.24c-1.735.149-3.469.341-5.2.538l.074-.1.046,2.794-.135-.132c1.734-.192,3.469-.348,5.2-.451,1.751-.1,3.5-.149,5.253-.167,1.75,0,3.5.037,5.249.139,1.735.072,3.485.239,5.221.419l-.15.131L79.2.677l.09.1C77.556.582,75.822.389,74.072.24,73.2.18,72.322.108,71.453.06,70.587.03,69.718,0,68.837,0" transform="translate(17.91)" fill="#a9a9a9"/>
                  <path id="Path_1550" data-name="Path 1550" d="M48.837,22.568A49.621,49.621,0,0,1,75.481,15.15a49.574,49.574,0,0,1,26.64,7.419h12.132C108.719,10.452,93.443,1.72,75.481,1.72s-33.239,8.732-38.76,20.848Z" transform="translate(11.265 0.528)" fill="#c3c3c3"/>
                  <g id="Group_1120" data-name="Group 1120" transform="translate(50.709 2.248)" style="mix-blend-mode: multiply;isolation: isolate">
                    <g id="Group_1119" data-name="Group 1119">
                      <g id="Group_1118" data-name="Group 1118" clip-path="url(#clip-path-18)">
                        <path id="Path_1551" data-name="Path 1551" d="M108.575,15.06c-.869-.312-2.067-.672-3.654-1.079-24.35-6.088-54.433-2.3-46.639-7.389C66.06,1.5,85.162,2.883,85.162,2.883c.374.03.733.03,1.034.047A52.957,52.957,0,0,0,74.842,1.72c-15.56,0-29.094,6.55-36.037,16.167,6.3.282,17.532-.059,20.016-.587.195-.024.642-.054,1.286-.084A53.289,53.289,0,0,1,74.842,15.15a52.346,52.346,0,0,1,16.2,2.517c9.127.042,17.055-.18,18.835-1.079-.419-.521-.855-1.031-1.3-1.528" transform="translate(-38.805 -1.72)" fill="#dbdbdb"/>
                      </g>
                    </g>
                  </g>
                  <path id="Path_1552" data-name="Path 1552" d="M110.879,13.342c-9.393-3.829-21-4.459-34.867-4.459S50.387,9.992,41.14,13.342H34.994v6.927h82.049V13.342Z" transform="translate(10.735 2.725)" fill="#dbdbdb"/>
                  <g id="Group_1123" data-name="Group 1123" transform="translate(45.729 18.818)" style="mix-blend-mode: multiply;isolation: isolate">
                    <g id="Group_1122" data-name="Group 1122">
                      <g id="Group_1121" data-name="Group 1121" clip-path="url(#clip-path-19)">
                        <rect id="Rectangle_1225" data-name="Rectangle 1225" width="82.049" height="4.176" transform="translate(0)" fill="#636363"/>
                      </g>
                    </g>
                  </g>
                  <rect id="Rectangle_1227" data-name="Rectangle 1227" width="101.228" height="18.236" transform="translate(36.138 19.434)" fill="#c3c3c3"/>
                  <g id="Group_1126" data-name="Group 1126" transform="translate(61.898 23.786)" style="mix-blend-mode: multiply;isolation: isolate">
                    <g id="Group_1125" data-name="Group 1125">
                      <g id="Group_1124" data-name="Group 1124" clip-path="url(#clip-path-20)">
                        <path id="Path_1553" data-name="Path 1553" d="M98.047,19.43H87.173V18.2H58.243V19.43H47.367v8.079H58.243v1.349H87.173V27.508H98.047Z" transform="translate(-47.367 -18.202)" fill="#cdcdcd"/>
                      </g>
                    </g>
                  </g>
                  <rect id="Rectangle_1229" data-name="Rectangle 1229" width="125.971" height="12.788" transform="translate(23.766 37.61)" fill="#c3c3c3"/>
                  <rect id="Rectangle_1230" data-name="Rectangle 1230" width="146.445" height="14.904" transform="translate(13.521 50.231)" fill="#c3c3c3"/>
                  <g id="Group_1129" data-name="Group 1129" transform="translate(13.492 50.231)" style="mix-blend-mode: multiply;isolation: isolate">
                    <g id="Group_1128" data-name="Group 1128">
                      <g id="Group_1127" data-name="Group 1127" clip-path="url(#clip-path-21)">
                        <path id="Path_1554" data-name="Path 1554" d="M10.355,38.439S58.911,51.545,156.77,50.856H10.325Z" transform="translate(-10.325 -38.439)" fill="#dbdbdb"/>
                      </g>
                    </g>
                  </g>
                  <g id="Group_1132" data-name="Group 1132" transform="translate(23.901 37.761)" style="mix-blend-mode: multiply;isolation: isolate">
                    <g id="Group_1131" data-name="Group 1131">
                      <g id="Group_1130" data-name="Group 1130" clip-path="url(#clip-path-22)">
                        <path id="Path_1555" data-name="Path 1555" d="M18.32,28.9s27.974,13.076,125.836,12.38H18.29Z" transform="translate(-18.291 -28.896)" fill="#dbdbdb"/>
                      </g>
                    </g>
                  </g>
                  <g id="Group_1135" data-name="Group 1135" transform="translate(36.408 19.237)" style="mix-blend-mode: multiply;isolation: isolate">
                    <g id="Group_1134" data-name="Group 1134">
                      <g id="Group_1133" data-name="Group 1133" clip-path="url(#clip-path-23)">
                        <path id="Path_1556" data-name="Path 1556" d="M27.891,14.721s2.9,18.044,100.763,17.337l-100.793.468Z" transform="translate(-27.861 -14.721)" fill="#dbdbdb"/>
                      </g>
                    </g>
                  </g>
                  <g id="Group_1138" data-name="Group 1138" transform="translate(45.655 16.247)" style="mix-blend-mode: multiply;isolation: isolate">
                    <g id="Group_1137" data-name="Group 1137">
                      <g id="Group_1136" data-name="Group 1136" clip-path="url(#clip-path-24)">
                        <path id="Path_1557" data-name="Path 1557" d="M34.965,12.433s10.156,2.32,82.1,2.517l-82.124.461Z" transform="translate(-34.937 -12.433)" fill="#ececec"/>
                      </g>
                    </g>
                  </g>
                  <path id="Path_1558" data-name="Path 1558" d="M0,47.929l2.663,2.846H2.645l42.051-.12L86.747,50.6l84.1-.048-.165.06,3.14-3.021.18.4-87,.03-43.5-.03Z" transform="translate(0 14.599)" fill="#e1e1e1"/>
                  <rect id="Rectangle_1235" data-name="Rectangle 1235" width="125.971" height="1.571" transform="translate(23.766 49.379)" fill="#e1e1e1"/>
                  <rect id="Rectangle_1236" data-name="Rectangle 1236" width="101.228" height="0.941" transform="translate(36.138 36.771)" fill="#e1e1e1"/>
                  <path id="Path_1559" data-name="Path 1559" d="M101.453,23.289c0,3.229-2.9,5.866-6.505,5.866s-6.508-2.637-6.508-5.866,2.918-5.867,6.508-5.867,6.505,2.637,6.505,5.867" transform="translate(27.131 5.345)" fill="#636363"/>
                  <path id="Path_1560" data-name="Path 1560" d="M101.453,22.714c0,3.236-2.9,5.849-6.505,5.849s-6.508-2.614-6.508-5.849,2.918-5.861,6.508-5.861,6.505,2.631,6.505,5.861" transform="translate(27.131 5.17)" fill="#c3c3c3"/>
                  <path id="Path_1561" data-name="Path 1561" d="M47.629,23.289c0,3.229-2.9,5.866-6.491,5.866-3.6,0-6.522-2.637-6.522-5.866s2.918-5.867,6.522-5.867c3.587,0,6.491,2.637,6.491,5.867" transform="translate(10.619 5.345)" fill="#636363"/>
                  <path id="Path_1562" data-name="Path 1562" d="M47.629,22.714c0,3.236-2.9,5.849-6.491,5.849-3.6,0-6.522-2.614-6.522-5.849s2.918-5.861,6.522-5.861c3.587,0,6.491,2.631,6.491,5.861" transform="translate(10.619 5.17)" fill="#c3c3c3"/>
                  <path id="Path_1563" data-name="Path 1563" d="M98.047,18.381H87.173V17.129H58.243v1.252H47.367v8.079H58.243v1.347H87.173V26.459H98.047Z" transform="translate(14.531 5.255)" fill="#c3c3c3"/>
                  <path id="Path_1564" data-name="Path 1564" d="M62.056,19.508c.014,0,.03,0,.03.03a.065.065,0,0,1-.06.06l-.329.06c-.044,0-.06.03-.06.072-.03.527-.06,1.75-.06,2.1s-.03,1.942-.03,2.121c0,.078.03.09.09.108l.389.072c.03.018.06.048.06.06s0,.012-.03.012H60.767v-.012c0-.03,0-.06.03-.06l.359-.072c.06-.03.09-.03.09-.12.014-.257,0-1.857,0-2.188,0-.311-.03-1.75-.03-1.911,0-.09-.03-.18-.09-.18l-.359-.06c-.03,0-.03-.03-.03-.06v-.03Z" transform="translate(18.633 5.985)" fill="#646464"/>
                  <path id="Path_1565" data-name="Path 1565" d="M63.087,19.508c.03,0,.06,0,.06.03.3.6,1.764,3.2,2.214,4.039.042.06.09.179.15.269h.03a2.025,2.025,0,0,1-.016-.3c0-.749-.014-3.5-.044-3.739,0-.09-.03-.139-.1-.15L65,19.6a.065.065,0,0,1-.06-.06c0-.03.016-.03.03-.03h1.2c.013,0,.027,0,.027.03a.062.062,0,0,1-.058.06l-.212.06c-.09.012-.118.03-.118.18-.03.263-.063,1.461-.09,1.959,0,.312-.044,2.139-.044,2.421,0,.018-.014.018-.033.03a.62.62,0,0,1-.146.03.1.1,0,0,1-.076-.042C65,23.487,63.566,21.151,63,20.078c-.03-.06-.074-.15-.12-.239h-.03V20.1c-.03.767-.059,3.745-.059,3.835s.014.09.059.09l.48.09c.016,0,.027.042.027.072V24.2H62.13s-.017,0-.017-.012a.077.077,0,0,1,.047-.072l.342-.078a.122.122,0,0,0,.1-.1c0-.257,0-1.905-.014-2.2s-.016-1.81-.016-1.917c0-.072-.03-.15-.1-.162L62.1,19.6c-.026,0-.044-.03-.044-.06s0-.03.018-.03Z" transform="translate(19.036 5.985)" fill="#646464"/>
                  <path id="Path_1566" data-name="Path 1566" d="M65.536,19.665c-.03,0-.059-.048-.059-.077,0-.013,0-.013.029-.013a15.141,15.141,0,0,1,1.515-.089A1.96,1.96,0,0,1,69.259,21.6a2.479,2.479,0,0,1-2.648,2.612H65.567a.075.075,0,0,1,.029-.072l.344-.09c.061-.012.1-.03.1-.1,0-.274-.03-1.905-.03-2.186V19.815c0-.09-.029-.139-.118-.139ZM66.6,24.094a2.2,2.2,0,0,0,2.261-2.457A1.81,1.81,0,0,0,66.912,19.6c-.417,0-.481.06-.491.15-.047.57-.106,4.033-.09,4.213,0,.1.1.125.252.125Z" transform="translate(20.087 5.978)" fill="#646464"/>
                  <path id="Path_1567" data-name="Path 1567" d="M70.02,19.508c.014,0,.03,0,.03.03a.065.065,0,0,1-.06.06l-.329.06c-.042,0-.057.03-.057.072-.033.527-.063,1.75-.063,2.1s-.026,1.942-.026,2.121c0,.078.026.09.089.108l.387.072c.03.018.06.048.06.06s0,.012-.03.012H68.734v-.012c0-.03,0-.06.03-.06l.359-.072c.06-.03.088-.03.088-.12.033-.257,0-1.857,0-2.188,0-.311-.027-1.75-.027-1.911,0-.09-.03-.18-.09-.18l-.359-.06c-.03,0-.03-.03-.03-.06v-.03Z" transform="translate(21.077 5.985)" fill="#646464"/>
                  <path id="Path_1568" data-name="Path 1568" d="M72.024,19.495c.076,0,.18.017.239.017.03,0,.046,0,.046.03.315,1.031,1.094,3.321,1.42,4.322a.346.346,0,0,0,.179.2l.3.072a.089.089,0,0,1,.044.072h-1.33c0-.024.016-.072.046-.072l.418-.1c.06,0,.1-.03.072-.09-.146-.418-.4-1.1-.536-1.468-.345,0-1.379.03-1.914.03-.046,0-.06.042-.09.09-.09.3-.285.929-.389,1.347-.03.072.014.09.06.1l.48.09c.03.018.056.03.056.072H69.78a.114.114,0,0,1,.044-.084l.225-.06c.06-.018.1-.06.15-.156.4-.983,1.24-3.284,1.6-4.261.048-.1.078-.149.21-.149Zm-.1.257a1.148,1.148,0,0,1-.1.294c-.24.7-.6,1.708-.746,2.188-.03.06-.03.077.03.09.359,0,1.419.042,1.764.012-.149-.414-.584-1.673-.809-2.254-.03-.077-.06-.209-.1-.329Z" transform="translate(21.407 5.981)" fill="#646464"/>
                  <rect id="Rectangle_1237" data-name="Rectangle 1237" width="6.269" height="3.098" transform="translate(22.751 71.636)" fill="#cdcdcd"/>
                  <rect id="Rectangle_1238" data-name="Rectangle 1238" width="6.028" height="2.978" transform="translate(22.871 75.364)" fill="#cdcdcd"/>
                  <rect id="Rectangle_1239" data-name="Rectangle 1239" width="5.4" height="2.661" transform="translate(23.185 78.954)" fill="#cdcdcd"/>
                  <rect id="Rectangle_1240" data-name="Rectangle 1240" width="6.253" height="3.098" transform="translate(42.902 71.636)" fill="#cdcdcd"/>
                  <rect id="Rectangle_1241" data-name="Rectangle 1241" width="6.014" height="2.978" transform="translate(43.02 75.364)" fill="#cdcdcd"/>
                  <rect id="Rectangle_1242" data-name="Rectangle 1242" width="5.415" height="2.661" transform="translate(43.32 78.954)" fill="#cdcdcd"/>
                  <rect id="Rectangle_1243" data-name="Rectangle 1243" width="6.265" height="3.098" transform="translate(63.036 71.636)" fill="#cdcdcd"/>
                  <rect id="Rectangle_1244" data-name="Rectangle 1244" width="6.028" height="2.978" transform="translate(63.157 75.364)" fill="#cdcdcd"/>
                  <rect id="Rectangle_1245" data-name="Rectangle 1245" width="5.387" height="2.661" transform="translate(63.483 78.954)" fill="#cdcdcd"/>
                  <rect id="Rectangle_1246" data-name="Rectangle 1246" width="6.253" height="3.098" transform="translate(83.199 71.636)" fill="#cdcdcd"/>
                  <rect id="Rectangle_1247" data-name="Rectangle 1247" width="6.014" height="2.978" transform="translate(83.319 75.364)" fill="#cdcdcd"/>
                  <rect id="Rectangle_1248" data-name="Rectangle 1248" width="5.4" height="2.661" transform="translate(83.618 78.954)" fill="#cdcdcd"/>
                  <rect id="Rectangle_1249" data-name="Rectangle 1249" width="6.254" height="3.098" transform="translate(103.333 71.636)" fill="#cdcdcd"/>
                  <rect id="Rectangle_1250" data-name="Rectangle 1250" width="6.012" height="2.978" transform="translate(103.455 75.364)" fill="#cdcdcd"/>
                  <rect id="Rectangle_1251" data-name="Rectangle 1251" width="5.402" height="2.661" transform="translate(103.769 78.954)" fill="#cdcdcd"/>
                  <rect id="Rectangle_1252" data-name="Rectangle 1252" width="6.265" height="3.098" transform="translate(123.485 71.636)" fill="#cdcdcd"/>
                  <rect id="Rectangle_1253" data-name="Rectangle 1253" width="6.029" height="2.978" transform="translate(123.603 75.364)" fill="#cdcdcd"/>
                  <rect id="Rectangle_1254" data-name="Rectangle 1254" width="5.385" height="2.661" transform="translate(123.918 78.954)" fill="#cdcdcd"/>
                  <rect id="Rectangle_1255" data-name="Rectangle 1255" width="6.25" height="3.098" transform="translate(143.634 71.636)" fill="#cdcdcd"/>
                  <rect id="Rectangle_1256" data-name="Rectangle 1256" width="6.014" height="2.978" transform="translate(143.755 75.364)" fill="#cdcdcd"/>
                  <rect id="Rectangle_1257" data-name="Rectangle 1257" width="5.414" height="2.661" transform="translate(144.054 78.954)" fill="#cdcdcd"/>
                  <path id="Path_1569" data-name="Path 1569" d="M86.211,165.74h0l-2.99-1.4v2.3L86.211,170v.018h52.64V165.74Z" transform="translate(25.53 50.415)" fill="#c7c7c7"/>
                  <path id="Path_1570" data-name="Path 1570" d="M86.211,169.984l-2.99-3.362.03-2.228,2.96,1.33Z" transform="translate(25.53 50.432)" fill="#a0a0a0"/>
                  <path id="Path_1571" data-name="Path 1571" d="M63.094,163.742l-3.481,2.181H6.971V170.2H59.613v-.017l3.409-3.321Z" transform="translate(2.138 50.232)" fill="#c7c7c7"/>
                  <path id="Path_1572" data-name="Path 1572" d="M47.255,170.156l3.481-3.469-.072-2.853L47.255,165.9Z" transform="translate(14.497 50.26)" fill="#a0a0a0"/>
                  <g id="Group_1141" data-name="Group 1141" transform="translate(15.946 69.383)" style="mix-blend-mode: multiply;isolation: isolate">
                    <g id="Group_1140" data-name="Group 1140">
                      <g id="Group_1139" data-name="Group 1139" clip-path="url(#clip-path-25)">
                        <rect id="Rectangle_1258" data-name="Rectangle 1258" width="140.192" height="27.404" transform="translate(-0.001)" fill="#d1d1d1"/>
                      </g>
                    </g>
                  </g>
                </g>
              </g>
            </g>
          </g>
        </g>
      </g>
    </g>
  </g>
</svg>
