<svg xmlns="http://www.w3.org/2000/svg" xmlns:xlink="http://www.w3.org/1999/xlink" width="268" height="268" viewBox="0 0 268 268">
  <defs>
    <clipPath id="clip-path">
      <rect id="Rectangle_5593" data-name="Rectangle 5593" width="109.749" height="214.737" fill="none"/>
    </clipPath>
    <clipPath id="clip-path-3">
      <rect id="Rectangle_5580" data-name="Rectangle 5580" width="51.046" height="134.819" fill="none"/>
    </clipPath>
    <clipPath id="clip-path-4">
      <rect id="Rectangle_5591" data-name="Rectangle 5591" width="73.625" height="214.403" fill="none"/>
    </clipPath>
  </defs>
  <g id="indore" transform="translate(-1377 -1257)">
    <rect id="Rectangle_4760" data-name="Rectangle 4760" width="268" height="268" transform="translate(1377 1257)" fill="#f1f6f7" opacity="0"/>
    <g id="Group_2988" data-name="Group 2988" transform="translate(1456.551 1283.338)">
      <g id="Group_2987" data-name="Group 2987" clip-path="url(#clip-path)">
        <g id="Group_2986" data-name="Group 2986">
          <g id="Group_2985" data-name="Group 2985" clip-path="url(#clip-path)">
            <g id="Group_2981" data-name="Group 2981" transform="translate(0 79.918)" style="mix-blend-mode: multiply;isolation: isolate">
              <g id="Group_2980" data-name="Group 2980">
                <g id="Group_2979" data-name="Group 2979" clip-path="url(#clip-path-3)">
                  <rect id="Rectangle_5553" data-name="Rectangle 5553" width="51.046" height="134.819" fill="#ab5f7f"/>
                  <rect id="Rectangle_5554" data-name="Rectangle 5554" width="6.473" height="6.473" transform="translate(5.379 14.743)" fill="#fff"/>
                  <rect id="Rectangle_5555" data-name="Rectangle 5555" width="6.473" height="6.473" transform="translate(16.706 14.743)" fill="#fff"/>
                  <rect id="Rectangle_5556" data-name="Rectangle 5556" width="5.663" height="6.473" transform="translate(28.842 14.743)" fill="#fff"/>
                  <rect id="Rectangle_5557" data-name="Rectangle 5557" width="6.473" height="6.473" transform="translate(5.379 24.452)" fill="#fff"/>
                  <rect id="Rectangle_5558" data-name="Rectangle 5558" width="6.473" height="6.473" transform="translate(16.706 24.452)" fill="#fff"/>
                  <rect id="Rectangle_5559" data-name="Rectangle 5559" width="5.663" height="6.473" transform="translate(28.842 24.452)" fill="#fff"/>
                  <rect id="Rectangle_5560" data-name="Rectangle 5560" width="6.473" height="6.473" transform="translate(5.379 34.16)" fill="#fff"/>
                  <rect id="Rectangle_5561" data-name="Rectangle 5561" width="5.663" height="6.473" transform="translate(28.842 34.16)" fill="#fff"/>
                  <rect id="Rectangle_5562" data-name="Rectangle 5562" width="6.473" height="6.473" transform="translate(5.379 43.869)" fill="#fff"/>
                  <rect id="Rectangle_5563" data-name="Rectangle 5563" width="6.473" height="6.473" transform="translate(16.706 43.869)" fill="#fff"/>
                  <rect id="Rectangle_5564" data-name="Rectangle 5564" width="5.663" height="6.473" transform="translate(28.842 43.869)" fill="#fff"/>
                  <rect id="Rectangle_5565" data-name="Rectangle 5565" width="6.473" height="5.663" transform="translate(5.379 54.387)" fill="#fff"/>
                  <rect id="Rectangle_5566" data-name="Rectangle 5566" width="5.663" height="5.663" transform="translate(28.842 54.387)" fill="#fff"/>
                  <rect id="Rectangle_5567" data-name="Rectangle 5567" width="6.473" height="5.663" transform="translate(5.379 64.096)" fill="#fff"/>
                  <rect id="Rectangle_5568" data-name="Rectangle 5568" width="6.473" height="5.663" transform="translate(16.706 64.096)" fill="#fff"/>
                  <rect id="Rectangle_5569" data-name="Rectangle 5569" width="5.663" height="5.663" transform="translate(28.842 64.096)" fill="#fff"/>
                  <rect id="Rectangle_5570" data-name="Rectangle 5570" width="6.473" height="5.663" transform="translate(16.706 73.805)" fill="#fff"/>
                  <rect id="Rectangle_5571" data-name="Rectangle 5571" width="6.473" height="5.663" transform="translate(5.379 83.514)" fill="#fff"/>
                  <rect id="Rectangle_5572" data-name="Rectangle 5572" width="6.473" height="5.663" transform="translate(16.706 83.514)" fill="#fff"/>
                  <rect id="Rectangle_5573" data-name="Rectangle 5573" width="5.663" height="5.663" transform="translate(28.842 83.514)" fill="#fff"/>
                  <rect id="Rectangle_5574" data-name="Rectangle 5574" width="6.473" height="5.663" transform="translate(16.706 93.222)" fill="#fff"/>
                  <rect id="Rectangle_5575" data-name="Rectangle 5575" width="5.663" height="5.663" transform="translate(28.842 93.222)" fill="#fff"/>
                  <rect id="Rectangle_5576" data-name="Rectangle 5576" width="6.473" height="6.473" transform="translate(5.379 102.931)" fill="#fff"/>
                  <rect id="Rectangle_5577" data-name="Rectangle 5577" width="5.663" height="6.473" transform="translate(28.842 102.931)" fill="#fff"/>
                  <rect id="Rectangle_5578" data-name="Rectangle 5578" width="6.473" height="6.473" transform="translate(5.379 112.64)" fill="#fff"/>
                  <rect id="Rectangle_5579" data-name="Rectangle 5579" width="6.473" height="6.473" transform="translate(16.706 112.64)" fill="#fff"/>
                </g>
              </g>
            </g>
            <g id="Group_2984" data-name="Group 2984" transform="translate(36.124)" style="mix-blend-mode: multiply;isolation: isolate">
              <g id="Group_2983" data-name="Group 2983">
                <g id="Group_2982" data-name="Group 2982" clip-path="url(#clip-path-4)">
                  <path id="Path_5680" data-name="Path 5680" d="M110.183,117.315V44.5h-8.9V25.081H86.721V0H75.394V25.081H60.83V44.5h-8.9v72.816H44.649V214.4h73.625V117.315ZM83.484,80.1H77.012V53.4h6.473Zm12.136,0H89.148V53.4H95.62Zm0,36.408H89.148v-26.7H95.62Zm-18.609-26.7h6.473v26.7H77.012ZM70.539,80.1H64.067V53.4h6.473Zm-6.473,9.709h6.473v26.7H64.067ZM51.931,167.477V134.305H58.4v33.172Zm12.945-33.172h5.663v33.172H64.876Zm12.136,0h6.473v33.172H77.012Zm12.136,0H95.62v33.172H89.148Zm13.754,0h6.473v33.172H102.9Z" transform="translate(-44.649)" fill="#3ebfc1"/>
                  <path id="Path_5681" data-name="Path 5681" d="M60.121,166H53.649v33.172h6.473Z" transform="translate(-46.367 -31.695)" fill="#fff"/>
                  <rect id="Rectangle_5581" data-name="Rectangle 5581" width="5.663" height="33.172" transform="translate(20.227 134.305)" fill="#fff"/>
                  <rect id="Rectangle_5582" data-name="Rectangle 5582" width="6.473" height="33.172" transform="translate(32.363 134.305)" fill="#fff"/>
                  <rect id="Rectangle_5583" data-name="Rectangle 5583" width="6.473" height="33.172" transform="translate(44.499 134.305)" fill="#fff"/>
                  <rect id="Rectangle_5584" data-name="Rectangle 5584" width="6.473" height="33.172" transform="translate(58.253 134.305)" fill="#fff"/>
                  <rect id="Rectangle_5585" data-name="Rectangle 5585" width="6.473" height="26.699" transform="translate(19.418 89.807)" fill="#fff"/>
                  <rect id="Rectangle_5586" data-name="Rectangle 5586" width="6.473" height="26.699" transform="translate(32.363 89.807)" fill="#fff"/>
                  <rect id="Rectangle_5587" data-name="Rectangle 5587" width="6.473" height="26.699" transform="translate(44.499 89.807)" fill="#fff"/>
                  <rect id="Rectangle_5588" data-name="Rectangle 5588" width="6.473" height="26.699" transform="translate(19.418 53.398)" fill="#fff"/>
                  <rect id="Rectangle_5589" data-name="Rectangle 5589" width="6.473" height="26.699" transform="translate(32.363 53.398)" fill="#fff"/>
                  <rect id="Rectangle_5590" data-name="Rectangle 5590" width="6.473" height="26.699" transform="translate(44.499 53.398)" fill="#fff"/>
                </g>
              </g>
            </g>
          </g>
        </g>
      </g>
    </g>
  </g>
</svg>
