<svg xmlns="http://www.w3.org/2000/svg" xmlns:xlink="http://www.w3.org/1999/xlink" width="268" height="268" viewBox="0 0 268 268">
  <defs>
    <clipPath id="clip-path">
      <rect id="Rectangle_4433" data-name="Rectangle 4433" width="214.57" height="137.992" fill="none"/>
    </clipPath>
  </defs>
  <g id="mumbai" transform="translate(-872 -370)">
    <rect id="Rectangle_4325" data-name="Rectangle 4325" width="268" height="268" transform="translate(872 370)" fill="#f1f6f7" opacity="0"/>
    <g id="Group_2749" data-name="Group 2749" transform="translate(899 435)">
      <g id="Group_2748" data-name="Group 2748" clip-path="url(#clip-path)">
        <path id="Path_4653" data-name="Path 4653" d="M186.891,80.375h-3.127V70.981h55.454V81.563H188.474c0-.656-.708-1.188-1.582-1.188" transform="translate(-32.54 -12.569)" fill="#d48d2e"/>
        <path id="Path_4654" data-name="Path 4654" d="M152.532,79.793v-12.1H96.055v12.1h56.477Z" transform="translate(-17.009 -11.987)" fill="#e39632"/>
        <path id="Path_4655" data-name="Path 4655" d="M63.9,63.045H10.98v2.969H65.073Z" transform="translate(-1.944 -11.164)" fill="#be7529"/>
        <path id="Path_4656" data-name="Path 4656" d="M62.4,61.6H10.258V62.79H63.739A1.266,1.266,0,0,1,62.4,61.6" transform="translate(-1.816 -10.909)" fill="#f3ac35"/>
        <path id="Path_4657" data-name="Path 4657" d="M64.651,67.2l-.216-.546H7.374L9.2,70.215H64.651Z" transform="translate(-1.306 -11.802)" fill="#f3ac35"/>
        <path id="Path_4658" data-name="Path 4658" d="M61.917,80.375h3.127V70.981H9.59V81.563H60.334c0-.656.708-1.188,1.582-1.188" transform="translate(-1.698 -12.569)" fill="#d48d2e"/>
        <path id="Path_4659" data-name="Path 4659" d="M62.409,85.027h-.964c-.875,0-1.582-.53-1.582-1.187H8.03a1.087,1.087,0,1,0,0,2.174H62.647Z" transform="translate(-1.226 -14.846)" fill="#f3ac35"/>
        <path id="Path_4660" data-name="Path 4660" d="M62.88,86.483H8.242v.926H63.106Z" transform="translate(-1.459 -15.314)" fill="#be7529"/>
        <path id="Path_4661" data-name="Path 4661" d="M63.393,95.36h-.551c0-1.047-.146-3.368-.225-4.55H2.564a2.1,2.1,0,0,0,1.787,2.164A1.67,1.67,0,0,0,5.486,95.36s-.324,2.809,1.786,2.809H63.393Z" transform="translate(-0.453 -16.08)" fill="#be7529"/>
        <path id="Path_4662" data-name="Path 4662" d="M184.258,95.36h.55c0-1.047.147-3.368.227-4.55h60.051a2.1,2.1,0,0,1-1.784,2.164,1.672,1.672,0,0,1-1.137,2.386s.324,2.809-1.786,2.809H184.258Z" transform="translate(-32.627 -16.08)" fill="#be7529"/>
        <rect id="Rectangle_4326" data-name="Rectangle 4326" width="12.355" height="12.45" transform="translate(65.019 14.718)" fill="#e39632"/>
        <rect id="Rectangle_4327" data-name="Rectangle 4327" width="12.356" height="12.45" transform="translate(137.196 14.718)" fill="#e39632"/>
        <path id="Path_4663" data-name="Path 4663" d="M64.059,59.756H66v-1.88H12.062v3.069H62.723a1.268,1.268,0,0,1,1.336-1.188" transform="translate(-2.136 -10.248)" fill="#f4c76d"/>
        <path id="Path_4664" data-name="Path 4664" d="M185.075,59.756h-1.94v-1.88h53.937v3.069H186.411a1.268,1.268,0,0,0-1.336-1.188" transform="translate(-32.428 -10.248)" fill="#f4c76d"/>
        <path id="Path_4665" data-name="Path 4665" d="M59.92,154.274v-1.382h.894v-1.383h.667l1.1-4.639-.654-.065v-1.383h.89v-1.381h.692V142.66h.894V99.753H8.285v55.9H58.767v-1.382Z" transform="translate(-1.467 -17.664)" fill="#d8822f"/>
        <path id="Path_4666" data-name="Path 4666" d="M188.746,154.274v-1.382h-.9v-1.383h-.667l-1.1-4.639.655-.065v-1.383h-.89v-1.381h-.692V142.66h-.894V99.753h56.12v55.9H189.9v-1.382Z" transform="translate(-32.627 -17.664)" fill="#d8822f"/>
        <path id="Path_4667" data-name="Path 4667" d="M62.744,90.244H2.111L0,87.608H62.744Z" transform="translate(0 -15.513)" fill="#f3ac35"/>
        <rect id="Rectangle_4328" data-name="Rectangle 4328" width="1.917" height="7.359" transform="translate(8.441 74.731)" fill="#e39632"/>
        <rect id="Rectangle_4329" data-name="Rectangle 4329" width="1.916" height="7.359" transform="translate(13.806 74.731)" fill="#e39632"/>
        <rect id="Rectangle_4330" data-name="Rectangle 4330" width="1.916" height="7.359" transform="translate(19.17 74.731)" fill="#e39632"/>
        <rect id="Rectangle_4331" data-name="Rectangle 4331" width="1.916" height="7.359" transform="translate(24.534 74.731)" fill="#e39632"/>
        <rect id="Rectangle_4332" data-name="Rectangle 4332" width="1.916" height="7.359" transform="translate(29.899 74.731)" fill="#e39632"/>
        <rect id="Rectangle_4333" data-name="Rectangle 4333" width="1.916" height="7.359" transform="translate(35.263 74.731)" fill="#e39632"/>
        <rect id="Rectangle_4334" data-name="Rectangle 4334" width="1.917" height="7.359" transform="translate(40.627 74.731)" fill="#e39632"/>
        <rect id="Rectangle_4335" data-name="Rectangle 4335" width="1.916" height="7.359" transform="translate(45.993 74.731)" fill="#e39632"/>
        <rect id="Rectangle_4336" data-name="Rectangle 4336" width="1.916" height="7.359" transform="translate(51.356 74.731)" fill="#e39632"/>
        <rect id="Rectangle_4337" data-name="Rectangle 4337" width="1.916" height="7.359" transform="translate(56.72 74.731)" fill="#e39632"/>
        <rect id="Rectangle_4338" data-name="Rectangle 4338" width="33.144" height="2.249" transform="translate(25.373 82.09)" fill="#f6bc4f"/>
        <rect id="Rectangle_4339" data-name="Rectangle 4339" width="31.228" height="1.727" transform="translate(26.331 84.339)" fill="#f3ac35"/>
        <rect id="Rectangle_4340" data-name="Rectangle 4340" width="28.749" height="51.926" transform="translate(27.571 86.067)" fill="#e39632"/>
        <rect id="Rectangle_4341" data-name="Rectangle 4341" width="19.543" height="29.206" transform="translate(32.174 108.786)" fill="#f6bc4f"/>
        <rect id="Rectangle_4342" data-name="Rectangle 4342" width="1.893" height="2.382" transform="translate(29.061 108.786)" fill="#f6bc4f"/>
        <rect id="Rectangle_4343" data-name="Rectangle 4343" width="1.893" height="2.38" transform="translate(29.061 112.046)" fill="#f6bc4f"/>
        <rect id="Rectangle_4344" data-name="Rectangle 4344" width="1.893" height="2.38" transform="translate(29.061 115.307)" fill="#f6bc4f"/>
        <rect id="Rectangle_4345" data-name="Rectangle 4345" width="1.893" height="2.382" transform="translate(29.061 118.565)" fill="#f6bc4f"/>
        <rect id="Rectangle_4346" data-name="Rectangle 4346" width="1.893" height="2.382" transform="translate(29.061 121.824)" fill="#f6bc4f"/>
        <rect id="Rectangle_4347" data-name="Rectangle 4347" width="1.893" height="2.382" transform="translate(29.061 125.085)" fill="#f6bc4f"/>
        <rect id="Rectangle_4348" data-name="Rectangle 4348" width="1.893" height="2.38" transform="translate(29.061 128.345)" fill="#f6bc4f"/>
        <rect id="Rectangle_4349" data-name="Rectangle 4349" width="1.893" height="2.381" transform="translate(29.061 131.605)" fill="#f6bc4f"/>
        <rect id="Rectangle_4350" data-name="Rectangle 4350" width="1.893" height="2.382" transform="translate(29.061 134.864)" fill="#f6bc4f"/>
        <rect id="Rectangle_4351" data-name="Rectangle 4351" width="1.893" height="2.382" transform="translate(52.937 108.786)" fill="#f6bc4f"/>
        <rect id="Rectangle_4352" data-name="Rectangle 4352" width="1.893" height="2.38" transform="translate(52.937 112.046)" fill="#f6bc4f"/>
        <rect id="Rectangle_4353" data-name="Rectangle 4353" width="1.893" height="2.38" transform="translate(52.937 115.307)" fill="#f6bc4f"/>
        <rect id="Rectangle_4354" data-name="Rectangle 4354" width="1.893" height="2.382" transform="translate(52.937 118.565)" fill="#f6bc4f"/>
        <rect id="Rectangle_4355" data-name="Rectangle 4355" width="1.893" height="2.382" transform="translate(52.937 121.824)" fill="#f6bc4f"/>
        <rect id="Rectangle_4356" data-name="Rectangle 4356" width="1.893" height="2.382" transform="translate(52.937 125.085)" fill="#f6bc4f"/>
        <rect id="Rectangle_4357" data-name="Rectangle 4357" width="1.893" height="2.38" transform="translate(52.937 128.345)" fill="#f6bc4f"/>
        <rect id="Rectangle_4358" data-name="Rectangle 4358" width="1.893" height="2.381" transform="translate(52.937 131.605)" fill="#f6bc4f"/>
        <rect id="Rectangle_4359" data-name="Rectangle 4359" width="1.893" height="2.382" transform="translate(52.937 134.864)" fill="#f6bc4f"/>
        <path id="Path_4668" data-name="Path 4668" d="M48.379,109.291c-.078-.009-12.045.784-12.045,16.621h24.09c0-15.837-11.967-16.631-12.045-16.621" transform="translate(-6.434 -19.352)" fill="#521a01"/>
        <path id="Path_4669" data-name="Path 4669" d="M48.379,109.291c-.078-.009-12.045.784-12.045,16.621h24.09C60.424,110.075,48.457,109.282,48.379,109.291Z" transform="translate(-6.434 -19.352)" fill="none" stroke="#f3ac35" stroke-linecap="round" stroke-linejoin="round" stroke-width="0.481"/>
        <line id="Line_1" data-name="Line 1" y2="13.163" transform="translate(49.306 93.397)" fill="none" stroke="#f3ac35" stroke-linecap="round" stroke-linejoin="round" stroke-width="0.481"/>
        <line id="Line_2" data-name="Line 2" y2="15.336" transform="translate(46.218 91.225)" fill="none" stroke="#f3ac35" stroke-linecap="round" stroke-linejoin="round" stroke-width="0.481"/>
        <line id="Line_3" data-name="Line 3" y2="16.437" transform="translate(43.13 90.123)" fill="none" stroke="#f3ac35" stroke-linecap="round" stroke-linejoin="round" stroke-width="0.481"/>
        <line id="Line_4" data-name="Line 4" y2="16.258" transform="translate(40.042 90.302)" fill="none" stroke="#f3ac35" stroke-linecap="round" stroke-linejoin="round" stroke-width="0.481"/>
        <line id="Line_5" data-name="Line 5" y2="14.944" transform="translate(36.954 91.617)" fill="none" stroke="#f3ac35" stroke-linecap="round" stroke-linejoin="round" stroke-width="0.481"/>
        <line id="Line_6" data-name="Line 6" y2="12.42" transform="translate(33.866 94.141)" fill="none" stroke="#f3ac35" stroke-linecap="round" stroke-linejoin="round" stroke-width="0.481"/>
        <line id="Line_7" data-name="Line 7" x1="23.658" transform="translate(30.117 103.057)" fill="none" stroke="#f3ac35" stroke-linecap="round" stroke-linejoin="round" stroke-width="0.481"/>
        <line id="Line_8" data-name="Line 8" x1="22.397" transform="translate(30.746 99.971)" fill="none" stroke="#f3ac35" stroke-linecap="round" stroke-linejoin="round" stroke-width="0.481"/>
        <line id="Line_9" data-name="Line 9" x1="19.944" transform="translate(31.974 96.881)" fill="none" stroke="#f3ac35" stroke-linecap="round" stroke-linejoin="round" stroke-width="0.481"/>
        <line id="Line_10" data-name="Line 10" x1="15.516" transform="translate(34.187 93.793)" fill="none" stroke="#f3ac35" stroke-linecap="round" stroke-linejoin="round" stroke-width="0.481"/>
        <rect id="Rectangle_4360" data-name="Rectangle 4360" width="14.988" height="26.135" transform="translate(34.451 111.858)" fill="#f3ac35"/>
        <path id="Path_4670" data-name="Path 4670" d="M56.12,163.046V152.832a1.392,1.392,0,0,0-2.065-1.227v-5.293a4.829,4.829,0,0,0-9.658,0v5.119a1.4,1.4,0,0,0-1.4,1.4v10.213Z" transform="translate(-7.614 -25.053)" fill="#521a01"/>
        <path id="Path_4671" data-name="Path 4671" d="M48.67,151.431v-5.119a4.824,4.824,0,0,1,2.693-4.324,4.819,4.819,0,0,0-6.965,4.324v5.119a1.4,1.4,0,0,0-1.4,1.4v10.213h4.273V152.832a1.4,1.4,0,0,1,1.4-1.4" transform="translate(-7.614 -25.053)" fill="#9a541f"/>
        <rect id="Rectangle_4361" data-name="Rectangle 4361" width="31.109" height="6.135" transform="translate(26.451 60.362)" fill="#f4c76d"/>
        <rect id="Rectangle_4362" data-name="Rectangle 4362" width="18.301" height="1.382" transform="translate(62.045 124.997)" fill="#d28b2e"/>
        <rect id="Rectangle_4363" data-name="Rectangle 4363" width="19.685" height="1.382" transform="translate(61.353 126.379)" fill="#e39632"/>
        <path id="Path_4672" data-name="Path 4672" d="M92.8,89.108l.844-3.826H92.491l-.737,3.826H90.91l.649-3.826H90.4l-.541,3.826h-.844l.456-3.826H87.111l-.235,3.826h-.844l.151-3.826H85.027l-.044,3.826h-.844L84.1,85.282H82.941l.149,3.826h-.843l-.238-3.826h-2.36l.453,3.826h-.84l-.543-3.826H77.563l.649,3.826h-.844l-.737-3.826H75.477l.844,3.826h-.844s.275,3.836.275,5.273H93.369c0-1.917.115-3.755.253-5.273Z" transform="translate(-13.365 -15.101)" fill="#d0802d"/>
        <path id="Path_4673" data-name="Path 4673" d="M92.54,15.741a1.5,1.5,0,0,1-1.5,1.5H78.686a1.5,1.5,0,0,1,0-3H91.042a1.5,1.5,0,0,1,1.5,1.5" transform="translate(-13.668 -2.522)" fill="#f3ac35"/>
        <path id="Path_4674" data-name="Path 4674" d="M85.186,0s-6.178,7.53-6.178,10.72v1H91.363v-1C91.363,7.53,85.186,0,85.186,0" transform="translate(-13.99)" fill="#e39632"/>
        <path id="Path_4675" data-name="Path 4675" d="M87.545,26.15V20.678a1.312,1.312,0,1,0-2.623,0V26.15Z" transform="translate(-15.037 -3.429)" fill="#c27329"/>
        <path id="Path_4676" data-name="Path 4676" d="M82.036,26.15V20.678c0-.726-.373-1.315-.832-1.315s-.832.589-.832,1.315V26.15Z" transform="translate(-14.232 -3.429)" fill="#c27329"/>
        <path id="Path_4677" data-name="Path 4677" d="M92.3,26.15V20.678c0-.726-.37-1.315-.832-1.315s-.832.589-.832,1.315V26.15Z" transform="translate(-16.049 -3.429)" fill="#c27329"/>
        <rect id="Rectangle_4364" data-name="Rectangle 4364" width="14.665" height="4.947" transform="translate(63.863 44.561)" fill="#e39632"/>
        <path id="Path_4678" data-name="Path 4678" d="M94.842,61.349a1.266,1.266,0,0,1-1.336,1.185H74.96a1.195,1.195,0,1,1,0-2.373H93.506a1.268,1.268,0,0,1,1.336,1.188" transform="translate(-13.037 -10.653)" fill="#f3ac35"/>
        <path id="Path_4679" data-name="Path 4679" d="M96.373,83.584c0,.657-.708,1.187-1.582,1.187H72.835c-.875,0-1.582-.53-1.582-1.187s.708-1.188,1.582-1.188H94.79c.875,0,1.582.532,1.582,1.188" transform="translate(-12.617 -14.59)" fill="#f3ac35"/>
        <path id="Path_4680" data-name="Path 4680" d="M78.065,66.871H76.8l-1.514-3.826H76.8Z" transform="translate(-13.331 -11.164)" fill="#e39632"/>
        <path id="Path_4681" data-name="Path 4681" d="M81.633,66.871H80.367l-.958-3.826h1.515Z" transform="translate(-14.061 -11.164)" fill="#e39632"/>
        <path id="Path_4682" data-name="Path 4682" d="M85.2,66.871H83.935l-.4-3.826h1.511Z" transform="translate(-14.792 -11.164)" fill="#e39632"/>
        <path id="Path_4683" data-name="Path 4683" d="M88.735,66.871H87.472l.153-3.826h1.513Z" transform="translate(-15.489 -11.164)" fill="#e39632"/>
        <path id="Path_4684" data-name="Path 4684" d="M92.183,66.871H90.918l.712-3.826h1.513Z" transform="translate(-16.099 -11.164)" fill="#e39632"/>
        <path id="Path_4685" data-name="Path 4685" d="M95.632,66.871H94.367l1.265-3.826h1.515Z" transform="translate(-16.71 -11.164)" fill="#e39632"/>
        <path id="Path_4686" data-name="Path 4686" d="M76.12,89.108h-.843l-.929-3.826h.929Z" transform="translate(-13.165 -15.101)" fill="#e39632"/>
        <path id="Path_4687" data-name="Path 4687" d="M78.461,89.108h-.844l-.736-3.826h.931Z" transform="translate(-13.614 -15.101)" fill="#e39632"/>
        <path id="Path_4688" data-name="Path 4688" d="M80.8,89.108H79.96l-.542-3.826h.927Z" transform="translate(-14.063 -15.101)" fill="#e39632"/>
        <path id="Path_4689" data-name="Path 4689" d="M84.5,89.108h-.843l-.238-3.826h.93Z" transform="translate(-14.771 -15.101)" fill="#e39632"/>
        <path id="Path_4690" data-name="Path 4690" d="M86.838,89.108h-.844l-.043-3.826h.932Z" transform="translate(-15.22 -15.101)" fill="#e39632"/>
        <path id="Path_4691" data-name="Path 4691" d="M89.147,89.108H88.3l.151-3.826h.929Z" transform="translate(-15.636 -15.101)" fill="#e39632"/>
        <path id="Path_4692" data-name="Path 4692" d="M92.774,89.108h-.843l.456-3.826h.929Z" transform="translate(-16.279 -15.101)" fill="#e39632"/>
        <path id="Path_4693" data-name="Path 4693" d="M95.076,89.108h-.844l.649-3.826h.932Z" transform="translate(-16.686 -15.101)" fill="#e39632"/>
        <path id="Path_4694" data-name="Path 4694" d="M97.374,89.108h-.844l.844-3.826H98.3Z" transform="translate(-17.093 -15.101)" fill="#e39632"/>
        <path id="Path_4695" data-name="Path 4695" d="M92.552,66.871H91.288l1.265-3.826H90.675l-.958,3.826H88.45l.711-3.826H87.279l-.4,3.826H85.614l.155-3.826H83.886l.154,3.826H82.776l-.4-3.826h-1.88l.711,3.826H79.936l-.958-3.826H77.1l1.266,3.826H77.1l-.123-.31V78.97h15.7V66.559Z" transform="translate(-13.63 -11.164)" fill="#d0802d"/>
        <path id="Path_4696" data-name="Path 4696" d="M92.27,33.8a.785.785,0,0,1-.786.786H78.391a.785.785,0,1,1,0-1.57H91.484a.785.785,0,0,1,.786.784" transform="translate(-13.742 -5.846)" fill="#f3ac35"/>
        <path id="Path_4697" data-name="Path 4697" d="M90.874,40.8H78.519l-2.275-3.262h16.9Z" transform="translate(-13.501 -6.647)" fill="#e39632"/>
        <rect id="Rectangle_4365" data-name="Rectangle 4365" width="3.297" height="45.718" transform="translate(62.939 79.278)" fill="#f3ac35"/>
        <rect id="Rectangle_4366" data-name="Rectangle 4366" width="3.297" height="45.718" transform="translate(66.243 79.278)" fill="#e39732"/>
        <rect id="Rectangle_4367" data-name="Rectangle 4367" width="3.299" height="45.718" transform="translate(69.546 79.278)" fill="#d78c2f"/>
        <rect id="Rectangle_4368" data-name="Rectangle 4368" width="3.299" height="45.718" transform="translate(72.85 79.278)" fill="#ce802d"/>
        <rect id="Rectangle_4369" data-name="Rectangle 4369" width="3.297" height="45.718" transform="translate(76.155 79.278)" fill="#be7028"/>
        <rect id="Rectangle_4370" data-name="Rectangle 4370" width="21.465" height="1.448" transform="translate(60.464 127.759)" fill="#f3ac35"/>
        <path id="Path_4698" data-name="Path 4698" d="M95.291,161.648H72.928l1.1-4.638H94.189Z" transform="translate(-12.914 -27.802)" fill="#d28b2e"/>
        <rect id="Rectangle_4371" data-name="Rectangle 4371" width="23.697" height="1.383" transform="translate(59.347 133.846)" fill="#e39632"/>
        <rect id="Rectangle_4372" data-name="Rectangle 4372" width="25.487" height="1.382" transform="translate(58.453 135.229)" fill="#d28b2e"/>
        <rect id="Rectangle_4373" data-name="Rectangle 4373" width="27.79" height="1.382" transform="translate(57.301 136.611)" fill="#f3ac35"/>
        <rect id="Rectangle_4374" data-name="Rectangle 4374" width="12.355" height="2.154" transform="translate(65.019 28.738)" fill="#d0802d"/>
        <rect id="Rectangle_4375" data-name="Rectangle 4375" width="12.355" height="10.408" transform="translate(65.018 34.153)" fill="#d0802d"/>
        <path id="Path_4699" data-name="Path 4699" d="M184.493,90.244h60.635l2.111-2.636H184.493Z" transform="translate(-32.669 -15.513)" fill="#f3ac35"/>
        <rect id="Rectangle_4376" data-name="Rectangle 4376" width="1.916" height="7.359" transform="translate(204.211 74.731)" fill="#e39632"/>
        <rect id="Rectangle_4377" data-name="Rectangle 4377" width="1.916" height="7.359" transform="translate(198.848 74.731)" fill="#e39632"/>
        <rect id="Rectangle_4378" data-name="Rectangle 4378" width="1.916" height="7.359" transform="translate(193.484 74.731)" fill="#e39632"/>
        <rect id="Rectangle_4379" data-name="Rectangle 4379" width="1.914" height="7.359" transform="translate(188.12 74.731)" fill="#e39632"/>
        <rect id="Rectangle_4380" data-name="Rectangle 4380" width="1.916" height="7.359" transform="translate(182.755 74.731)" fill="#e39632"/>
        <rect id="Rectangle_4381" data-name="Rectangle 4381" width="1.916" height="7.359" transform="translate(177.391 74.731)" fill="#e39632"/>
        <rect id="Rectangle_4382" data-name="Rectangle 4382" width="1.916" height="7.359" transform="translate(172.027 74.731)" fill="#e39632"/>
        <rect id="Rectangle_4383" data-name="Rectangle 4383" width="1.916" height="7.359" transform="translate(166.662 74.731)" fill="#e39632"/>
        <rect id="Rectangle_4384" data-name="Rectangle 4384" width="1.916" height="7.359" transform="translate(161.298 74.731)" fill="#e39632"/>
        <rect id="Rectangle_4385" data-name="Rectangle 4385" width="1.916" height="7.359" transform="translate(155.934 74.731)" fill="#e39632"/>
        <rect id="Rectangle_4386" data-name="Rectangle 4386" width="33.144" height="2.249" transform="translate(156.053 82.09)" fill="#f6bc4f"/>
        <rect id="Rectangle_4387" data-name="Rectangle 4387" width="31.228" height="1.727" transform="translate(157.01 84.339)" fill="#f3ac35"/>
        <rect id="Rectangle_4388" data-name="Rectangle 4388" width="28.749" height="51.926" transform="translate(158.25 86.067)" fill="#e39632"/>
        <rect id="Rectangle_4389" data-name="Rectangle 4389" width="19.543" height="29.206" transform="translate(162.853 108.786)" fill="#f6bc4f"/>
        <rect id="Rectangle_4390" data-name="Rectangle 4390" width="1.893" height="2.382" transform="translate(183.616 108.786)" fill="#f6bc4f"/>
        <rect id="Rectangle_4391" data-name="Rectangle 4391" width="1.893" height="2.38" transform="translate(183.616 112.046)" fill="#f6bc4f"/>
        <rect id="Rectangle_4392" data-name="Rectangle 4392" width="1.893" height="2.38" transform="translate(183.616 115.307)" fill="#f6bc4f"/>
        <rect id="Rectangle_4393" data-name="Rectangle 4393" width="1.893" height="2.382" transform="translate(183.616 118.565)" fill="#f6bc4f"/>
        <rect id="Rectangle_4394" data-name="Rectangle 4394" width="1.893" height="2.382" transform="translate(183.616 121.824)" fill="#f6bc4f"/>
        <rect id="Rectangle_4395" data-name="Rectangle 4395" width="1.893" height="2.382" transform="translate(183.616 125.085)" fill="#f6bc4f"/>
        <rect id="Rectangle_4396" data-name="Rectangle 4396" width="1.893" height="2.38" transform="translate(183.616 128.345)" fill="#f6bc4f"/>
        <rect id="Rectangle_4397" data-name="Rectangle 4397" width="1.893" height="2.381" transform="translate(183.616 131.605)" fill="#f6bc4f"/>
        <rect id="Rectangle_4398" data-name="Rectangle 4398" width="1.893" height="2.382" transform="translate(183.616 134.864)" fill="#f6bc4f"/>
        <rect id="Rectangle_4399" data-name="Rectangle 4399" width="1.893" height="2.382" transform="translate(159.74 108.786)" fill="#f6bc4f"/>
        <rect id="Rectangle_4400" data-name="Rectangle 4400" width="1.893" height="2.38" transform="translate(159.74 112.046)" fill="#f6bc4f"/>
        <rect id="Rectangle_4401" data-name="Rectangle 4401" width="1.893" height="2.38" transform="translate(159.74 115.307)" fill="#f6bc4f"/>
        <rect id="Rectangle_4402" data-name="Rectangle 4402" width="1.893" height="2.382" transform="translate(159.74 118.565)" fill="#f6bc4f"/>
        <rect id="Rectangle_4403" data-name="Rectangle 4403" width="1.893" height="2.382" transform="translate(159.74 121.824)" fill="#f6bc4f"/>
        <rect id="Rectangle_4404" data-name="Rectangle 4404" width="1.893" height="2.382" transform="translate(159.74 125.085)" fill="#f6bc4f"/>
        <rect id="Rectangle_4405" data-name="Rectangle 4405" width="1.893" height="2.38" transform="translate(159.74 128.345)" fill="#f6bc4f"/>
        <rect id="Rectangle_4406" data-name="Rectangle 4406" width="1.893" height="2.381" transform="translate(159.74 131.605)" fill="#f6bc4f"/>
        <rect id="Rectangle_4407" data-name="Rectangle 4407" width="1.893" height="2.382" transform="translate(159.74 134.864)" fill="#f6bc4f"/>
        <path id="Path_4700" data-name="Path 4700" d="M207.177,109.291c.077-.009,12.045.784,12.045,16.621h-24.09c0-15.837,11.967-16.631,12.045-16.621" transform="translate(-34.553 -19.352)" fill="#521a01"/>
        <path id="Path_4701" data-name="Path 4701" d="M207.177,109.291c.077-.009,12.045.784,12.045,16.621h-24.09C195.132,110.075,207.1,109.282,207.177,109.291Z" transform="translate(-34.553 -19.352)" fill="none" stroke="#e39632" stroke-linecap="round" stroke-linejoin="round" stroke-width="0.481"/>
        <line id="Line_11" data-name="Line 11" y2="13.163" transform="translate(165.264 93.397)" fill="none" stroke="#e39632" stroke-linecap="round" stroke-linejoin="round" stroke-width="0.481"/>
        <line id="Line_12" data-name="Line 12" y2="15.336" transform="translate(168.352 91.225)" fill="none" stroke="#e39632" stroke-linecap="round" stroke-linejoin="round" stroke-width="0.481"/>
        <line id="Line_13" data-name="Line 13" y2="16.437" transform="translate(171.44 90.123)" fill="none" stroke="#e39632" stroke-linecap="round" stroke-linejoin="round" stroke-width="0.481"/>
        <line id="Line_14" data-name="Line 14" y2="16.258" transform="translate(174.528 90.302)" fill="none" stroke="#e39632" stroke-linecap="round" stroke-linejoin="round" stroke-width="0.481"/>
        <line id="Line_15" data-name="Line 15" y2="14.944" transform="translate(177.616 91.617)" fill="none" stroke="#e39632" stroke-linecap="round" stroke-linejoin="round" stroke-width="0.481"/>
        <line id="Line_16" data-name="Line 16" y2="12.42" transform="translate(180.704 94.141)" fill="none" stroke="#e39632" stroke-linecap="round" stroke-linejoin="round" stroke-width="0.481"/>
        <line id="Line_17" data-name="Line 17" x2="23.66" transform="translate(160.794 103.057)" fill="none" stroke="#e39632" stroke-linecap="round" stroke-linejoin="round" stroke-width="0.481"/>
        <line id="Line_18" data-name="Line 18" x2="22.397" transform="translate(161.427 99.971)" fill="none" stroke="#e39632" stroke-linecap="round" stroke-linejoin="round" stroke-width="0.481"/>
        <line id="Line_19" data-name="Line 19" x2="19.944" transform="translate(162.653 96.881)" fill="none" stroke="#e39632" stroke-linecap="round" stroke-linejoin="round" stroke-width="0.481"/>
        <line id="Line_20" data-name="Line 20" x2="15.516" transform="translate(164.866 93.793)" fill="none" stroke="#e39632" stroke-linecap="round" stroke-linejoin="round" stroke-width="0.481"/>
        <rect id="Rectangle_4408" data-name="Rectangle 4408" width="14.988" height="26.135" transform="translate(165.131 111.858)" fill="#f3ac35"/>
        <path id="Path_4702" data-name="Path 4702" d="M201.8,163.046V152.832a1.392,1.392,0,0,1,2.065-1.227v-5.293a4.829,4.829,0,0,1,9.658,0v5.119a1.4,1.4,0,0,1,1.4,1.4v10.213Z" transform="translate(-35.733 -25.053)" fill="#521a01"/>
        <path id="Path_4703" data-name="Path 4703" d="M210.27,151.431v-5.119a4.821,4.821,0,0,0-2.693-4.324,4.819,4.819,0,0,1,6.965,4.324v5.119a1.4,1.4,0,0,1,1.4,1.4v10.213h-4.273V152.832a1.4,1.4,0,0,0-1.4-1.4" transform="translate(-36.756 -25.053)" fill="#9a541f"/>
        <path id="Path_4704" data-name="Path 4704" d="M185.2,63.045h52.919v2.969H184.027Z" transform="translate(-32.586 -11.164)" fill="#be7529"/>
        <rect id="Rectangle_4409" data-name="Rectangle 4409" width="31.109" height="6.135" transform="translate(157.01 60.362)" fill="#f4c76d"/>
        <rect id="Rectangle_4410" data-name="Rectangle 4410" width="18.304" height="1.382" transform="translate(134.222 124.997)" fill="#d28b2e"/>
        <rect id="Rectangle_4411" data-name="Rectangle 4411" width="19.687" height="1.382" transform="translate(133.53 126.379)" fill="#e39632"/>
        <path id="Path_4705" data-name="Path 4705" d="M164.029,89.108l-.844-3.826h1.156l.737,3.826h.843l-.649-3.826h1.156l.543,3.826h.842l-.456-3.826h2.363l.236,3.826h.844l-.151-3.826H171.8l.043,3.826h.846l.043-3.826h1.155l-.151,3.826h.844l.238-3.826h2.363l-.458,3.826h.844l.542-3.826h1.156l-.649,3.826h.844l.736-3.826h1.155l-.844,3.826h.846s-.279,3.836-.279,5.273H163.462c0-1.917-.115-3.755-.253-5.273Z" transform="translate(-28.896 -15.101)" fill="#d0802d"/>
        <path id="Path_4706" data-name="Path 4706" d="M164.9,15.741a1.5,1.5,0,0,0,1.5,1.5h12.356a1.5,1.5,0,0,0,0-3H166.395a1.5,1.5,0,0,0-1.5,1.5" transform="translate(-29.199 -2.522)" fill="#f3ac35"/>
        <path id="Path_4707" data-name="Path 4707" d="M172.9,0s6.178,7.53,6.178,10.72v1H166.718v-1C166.718,7.53,172.9,0,172.9,0" transform="translate(-29.521)" fill="#e39632"/>
        <path id="Path_4708" data-name="Path 4708" d="M172.63,26.15V20.678a1.313,1.313,0,1,1,2.625,0V26.15Z" transform="translate(-30.568 -3.429)" fill="#c27329"/>
        <path id="Path_4709" data-name="Path 4709" d="M178.346,26.15V20.678c0-.726.373-1.315.832-1.315s.832.589.832,1.315V26.15Z" transform="translate(-31.58 -3.429)" fill="#c27329"/>
        <path id="Path_4710" data-name="Path 4710" d="M168.08,26.15V20.678c0-.726.374-1.315.832-1.315s.832.589.832,1.315V26.15Z" transform="translate(-29.762 -3.429)" fill="#c27329"/>
        <rect id="Rectangle_4412" data-name="Rectangle 4412" width="14.665" height="4.947" transform="translate(136.041 44.561)" fill="#e39632"/>
        <path id="Path_4711" data-name="Path 4711" d="M161.333,61.349a1.266,1.266,0,0,0,1.336,1.185h18.546a1.195,1.195,0,1,0,0-2.373H162.669a1.268,1.268,0,0,0-1.336,1.188" transform="translate(-28.568 -10.653)" fill="#f3ac35"/>
        <path id="Path_4712" data-name="Path 4712" d="M158.962,83.584c0,.657.709,1.187,1.58,1.187H182.5c.875,0,1.582-.53,1.582-1.187S183.374,82.4,182.5,82.4H160.542c-.871,0-1.58.532-1.58,1.188" transform="translate(-28.148 -14.59)" fill="#f3ac35"/>
        <path id="Path_4713" data-name="Path 4713" d="M182.075,66.871h1.266l1.515-3.826h-1.515Z" transform="translate(-32.241 -11.164)" fill="#e39632"/>
        <path id="Path_4714" data-name="Path 4714" d="M178.628,66.871h1.266l.956-3.826h-1.513Z" transform="translate(-31.63 -11.164)" fill="#e39632"/>
        <path id="Path_4715" data-name="Path 4715" d="M175.18,66.871h1.265l.4-3.826h-1.513Z" transform="translate(-31.02 -11.164)" fill="#e39632"/>
        <path id="Path_4716" data-name="Path 4716" d="M171.646,66.871h1.263l-.153-3.826h-1.515Z" transform="translate(-30.322 -11.164)" fill="#e39632"/>
        <path id="Path_4717" data-name="Path 4717" d="M168.076,66.871h1.266l-.711-3.826h-1.513Z" transform="translate(-29.592 -11.164)" fill="#e39632"/>
        <path id="Path_4718" data-name="Path 4718" d="M164.509,66.871h1.265l-1.265-3.826h-1.517Z" transform="translate(-28.862 -11.164)" fill="#e39632"/>
        <path id="Path_4719" data-name="Path 4719" d="M184.239,89.108h.844l.929-3.826h-.931Z" transform="translate(-32.624 -15.101)" fill="#e39632"/>
        <path id="Path_4720" data-name="Path 4720" d="M181.939,89.108h.844l.736-3.826h-.931Z" transform="translate(-32.216 -15.101)" fill="#e39632"/>
        <path id="Path_4721" data-name="Path 4721" d="M179.639,89.108h.844l.541-3.826H180.1Z" transform="translate(-31.809 -15.101)" fill="#e39632"/>
        <path id="Path_4722" data-name="Path 4722" d="M176.009,89.108h.844l.238-3.826h-.932Z" transform="translate(-31.167 -15.101)" fill="#e39632"/>
        <path id="Path_4723" data-name="Path 4723" d="M173.7,89.108h.846l.043-3.826h-.932Z" transform="translate(-30.75 -15.101)" fill="#e39632"/>
        <path id="Path_4724" data-name="Path 4724" d="M171.361,89.108h.844l-.151-3.826h-.93Z" transform="translate(-30.302 -15.101)" fill="#e39632"/>
        <path id="Path_4725" data-name="Path 4725" d="M167.668,89.108h.843l-.456-3.826h-.929Z" transform="translate(-29.593 -15.101)" fill="#e39632"/>
        <path id="Path_4726" data-name="Path 4726" d="M165.326,89.108h.843l-.649-3.826h-.929Z" transform="translate(-29.145 -15.101)" fill="#e39632"/>
        <path id="Path_4727" data-name="Path 4727" d="M162.985,89.108h.844l-.844-3.826h-.929Z" transform="translate(-28.696 -15.101)" fill="#e39632"/>
        <path id="Path_4728" data-name="Path 4728" d="M164.809,66.871h1.265l-1.265-3.826h1.879l.957,3.826h1.266l-.711-3.826h1.88l.4,3.826h1.265l-.155-3.826h1.882l-.154,3.826h1.264l.4-3.826h1.88l-.709,3.826h1.266l.956-3.826h1.88L179,66.871h1.266l.124-.31V78.97h-15.7V66.559Z" transform="translate(-29.161 -11.164)" fill="#d0802d"/>
        <path id="Path_4729" data-name="Path 4729" d="M165.314,33.8a.785.785,0,0,0,.786.786h13.094a.785.785,0,1,0,0-1.57H166.1a.785.785,0,0,0-.786.784" transform="translate(-29.273 -5.846)" fill="#f3ac35"/>
        <path id="Path_4730" data-name="Path 4730" d="M166.228,40.8h12.356l2.271-3.262h-16.9Z" transform="translate(-29.032 -6.647)" fill="#e39632"/>
        <rect id="Rectangle_4413" data-name="Rectangle 4413" width="21.468" height="1.448" transform="translate(132.639 127.759)" fill="#f3ac35"/>
        <path id="Path_4731" data-name="Path 4731" d="M160.635,161.648H183l-1.1-4.638H161.739Z" transform="translate(-28.444 -27.802)" fill="#d28b2e"/>
        <rect id="Rectangle_4414" data-name="Rectangle 4414" width="23.697" height="1.383" transform="translate(131.526 133.846)" fill="#e39632"/>
        <rect id="Rectangle_4415" data-name="Rectangle 4415" width="25.489" height="1.382" transform="translate(130.63 135.229)" fill="#d28b2e"/>
        <rect id="Rectangle_4416" data-name="Rectangle 4416" width="27.793" height="1.382" transform="translate(129.477 136.611)" fill="#f3ac35"/>
        <rect id="Rectangle_4417" data-name="Rectangle 4417" width="12.356" height="2.154" transform="translate(137.196 28.738)" fill="#d0802d"/>
        <rect id="Rectangle_4418" data-name="Rectangle 4418" width="12.356" height="10.408" transform="translate(137.196 34.153)" fill="#d0802d"/>
        <rect id="Rectangle_4419" data-name="Rectangle 4419" width="3.299" height="45.718" transform="translate(135.116 79.278)" fill="#f3ac35"/>
        <rect id="Rectangle_4420" data-name="Rectangle 4420" width="3.299" height="45.718" transform="translate(138.42 79.278)" fill="#e39732"/>
        <rect id="Rectangle_4421" data-name="Rectangle 4421" width="3.299" height="45.718" transform="translate(141.724 79.278)" fill="#d78c2f"/>
        <rect id="Rectangle_4422" data-name="Rectangle 4422" width="3.297" height="45.718" transform="translate(145.029 79.278)" fill="#ce802d"/>
        <rect id="Rectangle_4423" data-name="Rectangle 4423" width="3.299" height="45.718" transform="translate(148.332 79.278)" fill="#be7028"/>
        <path id="Path_4732" data-name="Path 4732" d="M186.829,61.6h52.144V62.79h-53.48a1.266,1.266,0,0,0,1.336-1.185" transform="translate(-32.846 -10.909)" fill="#f3ac35"/>
        <path id="Path_4733" data-name="Path 4733" d="M183.765,67.2l.216-.546h57.061l-1.824,3.562H183.765Z" transform="translate(-32.54 -11.802)" fill="#f3ac35"/>
        <path id="Path_4734" data-name="Path 4734" d="M186.342,85.027h.963c.875,0,1.582-.53,1.582-1.187H240.72a1.087,1.087,0,1,1,0,2.174H186.1Z" transform="translate(-32.954 -14.846)" fill="#f3ac35"/>
        <path id="Path_4735" data-name="Path 4735" d="M186.054,86.483h54.638v.926H185.829Z" transform="translate(-32.905 -15.314)" fill="#be7529"/>
        <path id="Path_4736" data-name="Path 4736" d="M151.662,94.693c0-1.917-.115-3.755-.253-5.273h-.023l-.579-2.375H97.954l-.577,2.375h-.023c-.138,1.518-.253,3.356-.253,5.273h-.551v45.716h.894v1.382h.692v1.382h.89v1.448h-.653l1.1,4.638h.667v1.384h.9v1.382h1.151v1.382h2.5c0-2.763-1.549-2.763-1.549-2.763V124.2c1.486,0,1.561-1.116,1.552-2.433h-4.156v-2.62h1.845c1.05-24.073,22-27.463,22-27.463s20.946,3.39,22,27.463h1.847v2.62h-4.158c-.007,1.318.068,2.433,1.552,2.433v26.443s-1.545,0-1.545,2.763h2.5v-1.382h1.153v-1.382h.9v-1.384h.665l1.1-4.638h-.655v-1.448h.89v-1.382h.692v-1.382h.894V94.693Z" transform="translate(-17.096 -15.413)" fill="#d8822f"/>
        <rect id="Rectangle_4424" data-name="Rectangle 4424" width="2.003" height="12.099" transform="translate(83.494 55.707)" fill="#f3ac35"/>
        <rect id="Rectangle_4425" data-name="Rectangle 4425" width="2.002" height="12.099" transform="translate(90.007 55.707)" fill="#f3ac35"/>
        <rect id="Rectangle_4426" data-name="Rectangle 4426" width="2.003" height="12.099" transform="translate(96.517 55.707)" fill="#f3ac35"/>
        <rect id="Rectangle_4427" data-name="Rectangle 4427" width="2.001" height="12.099" transform="translate(103.029 55.707)" fill="#f3ac35"/>
        <rect id="Rectangle_4428" data-name="Rectangle 4428" width="2.002" height="12.099" transform="translate(109.539 55.707)" fill="#f3ac35"/>
        <rect id="Rectangle_4429" data-name="Rectangle 4429" width="2.002" height="12.099" transform="translate(116.05 55.707)" fill="#f3ac35"/>
        <rect id="Rectangle_4430" data-name="Rectangle 4430" width="2.003" height="12.099" transform="translate(122.561 55.707)" fill="#f3ac35"/>
        <rect id="Rectangle_4431" data-name="Rectangle 4431" width="2.001" height="12.099" transform="translate(129.073 55.707)" fill="#f3ac35"/>
        <path id="Path_4737" data-name="Path 4737" d="M101.4,126.054h5.681s.081,1.355-.722,1.355c0,0,.225,1.265-.678,1.265H101.4Z" transform="translate(-17.955 -22.321)" fill="#f3ac35"/>
        <path id="Path_4738" data-name="Path 4738" d="M158.121,126.054H152.44s-.08,1.355.722,1.355c0,0-.225,1.265.68,1.265h4.28Z" transform="translate(-26.993 -22.321)" fill="#f3ac35"/>
        <path id="Path_4739" data-name="Path 4739" d="M147.633,120.145c-1.05-24.073-22-27.463-22-27.463s-20.949,3.39-22,27.463h2.357c1.079-21.428,19.642-24.452,19.642-24.452s18.562,3.024,19.641,24.452Z" transform="translate(-18.352 -16.411)" fill="#ca6e2b"/>
        <path id="Path_4740" data-name="Path 4740" d="M153.845,33.856h-.369a.785.785,0,1,1,0-1.569h.369V28.906H94.022v3.381h.369a.785.785,0,1,1,0,1.569h-.369v1.077h59.823Z" transform="translate(-16.649 -5.118)" fill="#f6bc4f"/>
        <path id="Path_4741" data-name="Path 4741" d="M152.708,38.938l-1.084-1.632h2.22V36.23H94.023v1.076H96.3l-1.137,1.632Z" transform="translate(-16.649 -6.415)" fill="#f3ac35"/>
        <path id="Path_4742" data-name="Path 4742" d="M97.118,58.88h53.633a1.195,1.195,0,1,1,0-2.373h1.94V51.56h1.155V41.151l-1.137-1.63H95.16l-1.137,1.63V51.56h1.155v4.947h1.94a1.195,1.195,0,1,1,0,2.373" transform="translate(-16.649 -6.998)" fill="#c27329"/>
        <path id="Path_4743" data-name="Path 4743" d="M152.506,66.871v-.312l.124.312-1.517-3.826H97.419L95.9,66.871l.124-.312v.312Z" transform="translate(-16.982 -11.164)" fill="#d0802d"/>
        <path id="Path_4744" data-name="Path 4744" d="M150.824,84.771h-.964c-.871,0-1.581-.53-1.581-1.187s.709-1.188,1.581-1.188H99.638c.874,0,1.582.532,1.582,1.188s-.708,1.187-1.582,1.187h-.964l-.046.193h52.244Z" transform="translate(-17.464 -14.59)" fill="#e39632"/>
        <path id="Path_4745" data-name="Path 4745" d="M150.806,85.485H98.563l-.307,1.284H151.11Z" transform="translate(-17.398 -15.137)" fill="#d0802d"/>
        <path id="Path_4746" data-name="Path 4746" d="M105.548,160.877c0-2.763-1.549-2.763-1.549-2.763V131.67c1.486,0,1.561-1.115,1.552-2.433H101.4v28.876h.293V159.5h1.153v1.382Z" transform="translate(-17.955 -22.884)" fill="#f3ac35"/>
        <path id="Path_4747" data-name="Path 4747" d="M154.292,129.237c-.007,1.318.067,2.433,1.551,2.433v26.443s-1.545,0-1.545,2.763h2.5V159.5h1.153v-1.382h.5V129.237Z" transform="translate(-27.321 -22.884)" fill="#f3ac35"/>
        <path id="Path_4748" data-name="Path 4748" d="M101.4,89.209v30.32h1.845c1.05-24.073,22-27.463,22-27.463s20.946,3.39,22,27.463h1.847V89.209Z" transform="translate(-17.955 -15.797)" fill="#f3ac35"/>
        <rect id="Rectangle_4432" data-name="Rectangle 4432" width="45.528" height="11.302" transform="translate(84.52 36.326)" fill="#f3ac35"/>
        <path id="Path_4749" data-name="Path 4749" d="M110.183,94.467a2.361,2.361,0,1,1-2.361-2.359,2.362,2.362,0,0,1,2.361,2.359" transform="translate(-18.674 -16.31)" fill="#ca6e2b"/>
        <path id="Path_4750" data-name="Path 4750" d="M109.226,94.729a1.143,1.143,0,1,1-1.142-1.142,1.143,1.143,0,0,1,1.142,1.142" transform="translate(-18.936 -16.572)" fill="#e39632"/>
        <path id="Path_4751" data-name="Path 4751" d="M154.263,94.467a2.36,2.36,0,1,1-2.361-2.359,2.362,2.362,0,0,1,2.361,2.359" transform="translate(-26.48 -16.31)" fill="#ca6e2b"/>
        <path id="Path_4752" data-name="Path 4752" d="M153.308,94.729a1.143,1.143,0,1,1-1.144-1.142,1.145,1.145,0,0,1,1.144,1.142" transform="translate(-26.742 -16.572)" fill="#e39632"/>
      </g>
    </g>
  </g>
</svg>
