<svg id="hamburger-close" xmlns="http://www.w3.org/2000/svg" width="31.344" height="31.344" viewBox="0 0 31.344 31.344">
  <path id="np_cross_2135404_000000" d="M15.672,0A15.672,15.672,0,1,0,31.344,15.672,15.671,15.671,0,0,0,15.672,0Zm5.37,18.794c.8.752,1.077,1.644.252,2.482s-1.714.583-2.483-.208l-3.188-3.281c-1.122,1.194-2.1,2.248-3.093,3.286-.764.8-1.665,1.036-2.481.195s-.526-1.729.268-2.482c1.013-.961,2.024-1.922,3.453-3.281-1.229-1.041-2.339-1.949-3.406-2.9-.857-.764-1.178-1.708-.252-2.583.857-.809,1.742-.477,2.483.313.953,1.016,1.9,2.037,3.085,3.306,1.224-1.306,2.2-2.368,3.2-3.412a1.54,1.54,0,0,1,2.374-.2c.85.811.639,1.709-.16,2.481-1.038,1-2.091,1.979-3.374,3.19,1.228,1.141,2.281,2.116,3.327,3.1Z" fill="#224855"/>
</svg>