<svg xmlns="http://www.w3.org/2000/svg" width="34.286" height="32" viewBox="0 0 34.286 32">
  <g id="Group_6866" data-name="Group 6866" transform="translate(-317 -64)">
    <g id="Group_6864" data-name="Group 6864" transform="translate(-43 0.5)">
      <rect id="Rectangle_1439" data-name="Rectangle 1439" width="34.286" height="32" rx="4" transform="translate(360 63.5)" fill="#007291"/>
    </g>
    <path id="np_phone_3952711_000000" d="M12.621,10a1.705,1.705,0,0,1,1.34.843L14,10.9l1.386,2a1.411,1.411,0,0,1-.068,1.878l-.035.036-.522.528a.325.325,0,0,0-.075.446A9.657,9.657,0,0,0,15.878,17.2l.133.133a12.732,12.732,0,0,0,1.626,1.393.308.308,0,0,0,.421-.045l.025-.024.528-.528a1.407,1.407,0,0,1,1.876-.122l.039.026,2,1.386a1.726,1.726,0,0,1,.9,1.38,2,2,0,0,1-.557,1.292l-.047.053c-.048.055-.1.117-.158.172a3.228,3.228,0,0,1-2.683,1.1c-1.956,0-4.35-1.222-6.553-3.424S10,15.394,10,13.431a3.239,3.239,0,0,1,1.1-2.676l.172-.151a2.006,2.006,0,0,1,1.345-.6Zm0,1.173a.99.99,0,0,0-.625.275c-.048.034-.083.069-.13.11a2.456,2.456,0,0,0-.817,1.873c-.034,1.75,1.372,4.069,3.163,5.853s4.021,3.115,5.771,3.081a2.457,2.457,0,0,0,1.88-.809c.041-.048.069-.083.11-.13a.99.99,0,0,0,.275-.625A.569.569,0,0,0,22,20.31l-.035-.024-2-1.331a.49.49,0,0,0-.64.037l-.026.024-.6.6a1.089,1.089,0,0,1-1.509.1,19.71,19.71,0,0,1-1.887-1.667,18.17,18.17,0,0,1-1.6-1.819,1.087,1.087,0,0,1,.063-1.476l.033-.034.6-.6a.479.479,0,0,0,.071-.64l-.016-.026-1.331-2a.565.565,0,0,0-.508-.281Z" transform="translate(317 63)" fill="#fff"/>
  </g>
</svg>
