<svg xmlns="http://www.w3.org/2000/svg" width="32" height="32" viewBox="0 0 32 32">
  <g id="search-box" transform="translate(-1288 -35)">
    <g id="Rectangle_1433" data-name="Rectangle 1433" transform="translate(1288 35)" fill="#fff" stroke="#e2ae3e" stroke-width="1">
      <rect width="32" height="32" rx="4" stroke="none"/>
      <rect x="0.5" y="0.5" width="31" height="31" rx="3.5" fill="none"/>
    </g>
    <path id="np_search_875352_000000" d="M21.846,20.843l-2.088-2.074a5.244,5.244,0,1,0-4.12,2,5.172,5.172,0,0,0,3.219-1.116l2.074,2.1a.627.627,0,0,0,.458.186.688.688,0,0,0,.458-.186.639.639,0,0,0,0-.915Zm-2.26-5.307a3.957,3.957,0,1,1-1.159-2.789,3.915,3.915,0,0,1,1.159,2.789Z" transform="translate(1287.779 34.877)" fill="#007291"/>
  </g>
</svg>
