<svg xmlns="http://www.w3.org/2000/svg" width="12.463" height="11.217" viewBox="0 0 12.463 11.217">
  <g id="feedback" transform="translate(-8.332 -19.27)">
    <g id="Group_6254" data-name="Group 6254" transform="translate(11.333 22.296)">
      <path id="Path_5933" data-name="Path 5933" d="M23.5,36.931l-.58-.085-.26-.526a.389.389,0,0,0-.67,0l-.26.526-.58.085h0a.374.374,0,0,0-.207.638l.42.409-.1.578a.374.374,0,0,0,.543.394l.519-.273.519.273h0a.374.374,0,0,0,.543-.394l-.1-.578.42-.409h0a.374.374,0,0,0-.207-.638Z" transform="translate(-20.833 -36.129)" fill="#7b7b7b"/>
      <path id="Path_5934" data-name="Path 5934" d="M44.339,36.931l-.58-.085-.26-.526a.389.389,0,0,0-.67,0l-.26.526-.58.085h0a.374.374,0,0,0-.207.638l.42.409-.1.578a.374.374,0,0,0,.543.394l.519-.273.519.273a.365.365,0,0,0,.174.043.374.374,0,0,0,.369-.437l-.1-.578.42-.409a.374.374,0,0,0-.207-.638Z" transform="translate(-37.928 -36.129)" fill="#7b7b7b"/>
    </g>
    <path id="Path_5936" data-name="Path 5936" d="M18.925,19.27H10.2a1.872,1.872,0,0,0-1.87,1.87v5.235a1.871,1.871,0,0,0,1.87,1.869h3.365v1.87a.374.374,0,0,0,.6.3l2.892-2.169h1.869a1.871,1.871,0,0,0,1.87-1.869V21.14a1.872,1.872,0,0,0-1.87-1.87Zm1.122,7.1h0A1.123,1.123,0,0,1,18.925,27.5H16.931a.375.375,0,0,0-.224.074l-2.393,1.795v-1.5a.373.373,0,0,0-.374-.374H10.2A1.123,1.123,0,0,1,9.08,26.374V21.14A1.123,1.123,0,0,1,10.2,20.018h8.724a1.123,1.123,0,0,1,1.122,1.122Z" transform="translate(0 0)" fill="#7b7b7b"/>
  </g>
</svg>
