<svg xmlns="http://www.w3.org/2000/svg" width="13.732" height="16" viewBox="0 0 13.732 16">
  <path id="intrnl-patient" d="M22.08,9.113c-1.532-4.307-4.34-5.2-6.385-5.458V2.431a.169.169,0,0,0-.278-.129L12.269,4.973s-.007.01-.011.015a6.046,6.046,0,0,0-2.841,6.968,5.6,5.6,0,0,1-.741-.733.169.169,0,0,0-.293.159c1.53,4.334,4.347,5.228,6.4,5.489v1.223a.169.169,0,0,0,.278.129L18.2,15.551s.007-.011.011-.015a6.047,6.047,0,0,0,2.841-6.969A5.633,5.633,0,0,1,21.8,9.3a.168.168,0,0,0,.131.066h.005A.169.169,0,0,0,22.1,9.2a.165.165,0,0,0-.024-.085ZM10.289,7.389c.17.062.478.173.376.264s-.178.17-.276.13a.79.79,0,0,0-.266-.09c.052-.1.107-.2.165-.3Zm-.405.847a.23.23,0,0,0,.05-.007c.237-.067.313-.052.34,0s.055.388-.215.427l-.3-.05q.056-.188.126-.371Zm5.082,8.316a6.853,6.853,0,0,1-5.953-4.492,9.1,9.1,0,0,0,5.929,2.273.179.179,0,0,0,.123-.048.168.168,0,0,0,.052-.122V13.118l2.717,2.305-2.717,2.305V16.721a.17.17,0,0,0-.151-.168Zm6-6.29a5.7,5.7,0,0,1-1.6,3.968,1.167,1.167,0,0,1,.091-.119.861.861,0,0,0,.17-1.025,2.221,2.221,0,0,1-.346-.873c-.024-.1-.291-.3-.291-.23,0,0,.006.394-.055.431s-.406-.06-.412-.151a.267.267,0,0,1,.048-.2c.036-.036-.254-.164-.424-.043s-.122.151-.152.175-.061-.1-.145-.06a.894.894,0,0,0-.291.218.853.853,0,0,1-.3.26c-.139.067-.248.012-.424.182s-.23.067-.2.309.212.579.133.7-.117.256.042.238.358-.128.54-.164.37-.188.485-.116.3.061.334.188a.468.468,0,0,1,.024.194s.079-.1.145-.1-.006-.054.067.139.018.279.115.334,0,.17.273.128a1.358,1.358,0,0,0,.162-.036,5.784,5.784,0,0,1-.842.6l-3.048-2.586a.169.169,0,0,0-.278.129v1.237A9.055,9.055,0,0,1,10.49,12.72c.194-.11.4-.215.259-.767-.157-.607.158-.607.412-.867s.642-.825.418-.77-.4.2-.636-.116-.922-1.364-.679-1.236a2.155,2.155,0,0,1,.819,1.218s.175.061.6-.254.648-.382.594-.521-.279-.346-.363-.249-.351-.006-.484-.194-.118-.349.073-.231a1.566,1.566,0,0,0,.873.4c.41,0,.591.054.764.336s.137-.018.182-.046.254,1.3.409,1.191.118-.6.281-.709a6.976,6.976,0,0,1,.623-.423c.131-.054.2-.05.286.132s.136.422.336.281.149.279.161.376a1.115,1.115,0,0,0,.171.533c.159.268.172.318.3.359s-.127-.473-.231-.568-.218-.41-.123-.441.373.237.418.318.35-.168.336-.327-.379-.365-.342-.45.128-.345.2-.23.055.254.091.223.079-.2.218-.272.818-.533.594-.94-.254-.445-.158-.531,0-.115-.1-.112a.152.152,0,0,1-.118-.254c.109-.149.178-.049.182,0s.112.07.209.03.063.176.1.188a.425.425,0,0,1,.179.3c0,.139.145.048.221-.137s0-.3-.118-.33-.158-.085-.124-.143.1-.115.106-.163-.066-.061-.009-.109a.284.284,0,0,1,.191-.076c.057-.007.148-.116.21-.27a8.738,8.738,0,0,1,2.746,1.315,5.682,5.682,0,0,1,.392,2.075ZM15.532,6.191h0a.169.169,0,0,0-.169.169V7.408L12.64,5.1,15.357,2.8V3.8a.169.169,0,0,0,.15.168A6.855,6.855,0,0,1,21.46,8.464a9.086,9.086,0,0,0-5.929-2.273Z" transform="translate(-8.373 -2.262)" fill="#7b7b7b"/>
</svg>
