<svg xmlns="http://www.w3.org/2000/svg" width="11.643" height="12.933" viewBox="0 0 11.643 12.933">
  <g id="faq" transform="translate(-20.204 -16.899)">
    <path id="Path_5930" data-name="Path 5930" d="M31.847,19.517A2.618,2.618,0,0,0,29.23,16.9H22.822A2.618,2.618,0,0,0,20.2,19.517v5.1a2.622,2.622,0,0,0,2.169,2.579V29.4a.469.469,0,0,0,.234.391.353.353,0,0,0,.2.039.4.4,0,0,0,.254-.078l1.309-.957a8.224,8.224,0,0,1,4.864-1.583A2.618,2.618,0,0,0,31.847,24.6Zm-.86,5.1a1.742,1.742,0,0,1-1.738,1.738,9.188,9.188,0,0,0-5.373,1.738l-.625.449V26.784a.434.434,0,0,0-.43-.43,1.742,1.742,0,0,1-1.738-1.738v-5.1a1.742,1.742,0,0,1,1.738-1.738h6.427a1.742,1.742,0,0,1,1.738,1.738Z" fill="#7b7b7b"/>
    <path id="Path_5931" data-name="Path 5931" d="M44.126,31A1.347,1.347,0,0,0,42.7,32.368a.43.43,0,0,0,.859,0c0-.469.508-.488.566-.488s.566.02.566.488v.1a.5.5,0,0,1-.273.449l-.391.215a.633.633,0,0,0-.332.566v.352a.43.43,0,1,0,.859,0v-.215l.273-.137a1.359,1.359,0,0,0,.723-1.211l0-.118A1.357,1.357,0,0,0,44.125,31Z" transform="translate(-18.1 -11.346)" fill="#7b7b7b"/>
    <path id="Path_5932" data-name="Path 5932" d="M47.827,51.3a.548.548,0,0,0,0,1.094A.548.548,0,0,0,47.827,51.3Z" transform="translate(-21.801 -27.681)" fill="#7b7b7b"/>
  </g>
</svg>
